<svg width="92" height="40" viewBox="0 0 92 40" fill="none" xmlns="http://www.w3.org/2000/svg">
<path id="Vector" fill-rule="evenodd" clip-rule="evenodd" d="M124.701 22.2202L125.247 22.6293C125.179 22.0163 125.282 20.9899 125.282 20.9899C124.87 21.2622 124.77 21.7747 124.77 21.7747L124.189 21.8431L124.701 22.2202ZM147.081 26.6593C147.013 26.5225 146.91 26.4219 146.738 26.4219C146.569 26.4219 146.397 26.5909 146.397 26.8311C146.397 27.0712 146.569 27.2402 146.738 27.2402C146.942 27.2402 147.115 27.0712 147.115 26.8311C147.114 26.764 147.081 26.7277 147.081 26.6593ZM147.067 25.0562C147.076 25.0856 147.081 25.1219 147.081 25.1568C147.08 25.2415 147.053 25.3237 147.004 25.3927C146.955 25.4617 146.886 25.5143 146.806 25.5436V26.0477C146.901 26.0569 146.992 26.0857 147.075 26.1321C147.157 26.1785 147.23 26.2415 147.287 26.3172C147.397 26.4652 147.456 26.645 147.456 26.8297C147.456 27.1983 147.246 27.4957 146.94 27.5879C147.784 27.5223 148.312 27.4455 148.312 27.4455C147.491 27.2737 147.968 26.7961 147.968 26.7961C148.345 26.4875 149.061 26.2474 149.061 26.2474C148.208 26.144 147.731 25.4626 147.523 25.0534H147.067V25.0562ZM146.637 27.6089C146.311 27.5544 146.056 27.2346 146.056 26.8311C146.056 26.4443 146.291 26.1329 146.602 26.0616V25.5603C146.509 25.5459 146.422 25.5022 146.355 25.4355C146.288 25.3687 146.243 25.2824 146.228 25.1889L146.225 25.1917C145.885 25.2922 145.576 25.2922 145.576 25.2922C145.508 25.464 145.645 25.5324 145.645 25.5324C146.362 26.0449 145.885 26.5225 145.885 26.5225C145.544 26.8311 145.372 26.8311 145.372 26.8311C145.031 26.9344 144.21 27.6521 144.21 27.6521C145.124 27.6801 145.96 27.6521 146.637 27.6089ZM137.274 24.4404C137.336 24.4406 137.396 24.4215 137.446 24.386L138.128 24.6806C138.128 24.8845 138.265 25.0576 138.436 25.0576C138.542 25.0576 138.636 24.9892 138.69 24.8915L139.269 24.9766C139.306 25.1484 139.424 25.2629 139.563 25.2629C139.721 25.2629 139.88 25.1177 139.901 24.9082L140.384 24.6792C140.442 24.7644 140.527 24.8188 140.624 24.8188C140.793 24.8188 140.965 24.6471 140.965 24.4418L141.274 23.9321C141.854 23.9772 142.438 23.9655 143.016 23.8972C143.938 23.4169 144.691 23.1446 144.691 23.1446C144.416 23.3484 144.142 23.5216 143.97 23.7255C143.799 23.8961 143.639 24.0786 143.493 24.2715C143.369 24.3609 143.27 24.4798 143.204 24.6173C143.138 24.7549 143.108 24.9067 143.116 25.059C143.142 25.254 143.212 25.4405 143.32 25.605C143.491 25.8089 143.731 25.9136 143.731 25.9136L144.108 26.2543C143.8 26.4945 143.116 26.6635 143.116 26.6635C142.739 26.8031 142.229 26.5629 142.229 26.5629C141.032 26.2907 140.623 26.8352 140.623 26.8352C140.383 27.1075 139.939 27.1438 139.939 27.1438L140.143 27.4525C139.699 27.5893 139.461 27.4175 139.461 27.4175C139.426 26.8366 139.734 26.2557 139.734 26.2557C139.597 25.3341 137.682 25.5031 137.682 25.5031L137.206 25.0562L137.103 24.9529L136.009 23.9279C136.009 24.2365 135.873 24.6806 135.704 25.0576C135.567 25.3634 135.395 25.6385 135.395 25.6385L134.986 25.4319C135.064 25.318 135.121 25.1913 135.155 25.0576C135.495 24.2365 135.736 23.0747 135.736 23.0747C135.94 23.0747 136.113 23.1096 136.248 23.1432C136.351 23.2116 136.42 23.2465 136.42 23.2465C136.499 23.2842 136.586 23.3205 136.68 23.3582L137.057 23.893C137.021 23.9561 137.002 24.0273 137.002 24.0997C137.001 24.3036 137.103 24.4404 137.274 24.4404ZM141.089 23.9084L140.89 24.1919C140.862 24.1449 140.823 24.1056 140.777 24.0776C140.73 24.0495 140.677 24.0336 140.623 24.0313C140.451 24.0313 140.314 24.2002 140.314 24.4404C140.314 24.4725 140.317 24.5061 140.326 24.5354L139.89 24.7393C139.844 24.5787 139.704 24.439 139.563 24.439C139.394 24.439 139.257 24.6429 139.257 24.8482L138.737 24.7588C138.742 24.7326 138.745 24.706 138.745 24.6792C138.745 24.4753 138.605 24.2673 138.436 24.2673C138.308 24.2673 138.202 24.3818 138.156 24.5242L137.552 24.2519C137.573 24.2038 137.583 24.1519 137.582 24.0997C137.582 23.9279 137.445 23.759 137.273 23.759C137.246 23.7579 137.219 23.7627 137.193 23.7729L137.033 23.4839H137.03C137.9 23.7674 138.98 23.9643 138.98 23.9643H139.732L139.972 23.5872C140.282 23.7604 140.683 23.8595 141.089 23.9084ZM137.04 18.0742C137.068 18.1092 137.094 18.1413 137.122 18.1706L137.079 18.2474C137.056 18.2323 137.03 18.2236 137.002 18.2223C136.865 18.2223 136.762 18.3591 136.762 18.496L136.73 18.4624L136.455 18.1538L136.354 18.0519L135.738 17.4026C135.021 16.446 133.927 17.4026 133.927 17.4026L133.758 17.2657C134.336 16.9236 133.827 16.4796 133.827 16.4796L134.954 13.5751L134.645 13.1994C135.194 12.0711 134.032 12.0376 134.032 12.0376C133.689 11.0127 133.074 11.4916 133.074 11.4916C132.87 10.5002 132.116 11.0127 132.116 11.0127C131.844 10.3298 131.195 10.739 131.195 10.739L131.227 9.13311L130.477 9.16663L129.656 9.13311L129.724 10.7725C128.906 10.3633 128.766 11.183 128.766 11.183C127.811 10.6356 127.811 11.6955 127.811 11.6955C127.024 11.4553 127.058 12.208 127.058 12.208C126 12.3099 126.137 13.2329 126.137 13.2329L126.955 16.0341C126.751 16.5466 124.326 19.5195 124.326 19.5195L123.299 19.2123L123.231 19.042C123.47 19.1788 123.641 19.1104 123.641 19.1104C123.54 18.7683 123.675 18.0854 123.675 18.0854C123.984 16.7533 123.436 16.2743 123.436 16.2743C123.47 15.7269 123.094 15.079 123.094 15.079C123.607 14.4297 122.855 13.7803 122.855 13.7803L122.752 13.6086L122.718 12.208C122.582 12.208 122.513 12.0362 122.513 12.0362C122.308 11.4553 121.932 11.8323 121.932 11.8323C121.659 11.2179 121.215 11.6955 121.215 11.6955C120.838 11.183 120.462 11.6955 120.462 11.6955L120.155 10.7041L119.13 11.1132L119.472 12.2066C118.719 12.0348 118.959 12.7875 118.959 12.7875C118.31 12.821 118.617 13.4019 118.617 13.4019C118.003 13.4703 118.242 14.1546 118.242 14.1546L118.924 15.2815C118.377 15.8959 118.891 16.3064 118.891 16.3064C119.063 16.615 119.268 16.615 119.268 16.615C118.959 17.538 119.37 18.4946 119.37 18.4946C118.926 19.007 118.277 19.4162 117.696 19.7234C116.842 20.1339 116.09 20.3392 116.09 20.3392C114.756 20.6478 112.127 21.501 112.127 21.501C111.204 21.7384 109.735 22.1824 109.735 22.1824C107.89 22.7312 107.411 22.1503 107.411 22.1503C106.967 21.8752 107.309 21.1575 107.309 21.1575C107.753 20.2694 108.676 20.0641 108.676 20.0641C109.326 20.4761 109.564 20.7134 109.564 20.7134C109.974 21.1254 110.693 21.0905 110.693 21.0905L110.726 20.9536C111.033 20.9885 111.239 20.8852 111.239 20.8852C111.033 20.6813 111.033 20.4411 111.033 20.4411C111.033 20.2708 110.795 19.9985 110.795 19.9985L115.544 19.7932C115.716 19.7611 115.851 19.7611 115.988 19.7248C117.627 19.4176 118.004 19.042 118.004 19.042C119.131 18.1524 118.654 16.6834 118.654 16.6834C118.038 15.2493 116.842 15.1795 116.842 15.1795C115.919 14.9407 115.237 15.0776 115.237 15.0776C114.724 15.1125 113.666 14.8388 113.666 14.8388C113.631 15.0427 114.075 15.692 114.075 15.692C113.922 15.7058 113.767 15.6888 113.621 15.642C113.474 15.5953 113.338 15.5197 113.222 15.4197C112.674 14.9072 111.786 15.146 111.786 15.146C111.923 15.4197 112.744 16.1039 112.744 16.1039C112.265 16.1374 110.968 15.5915 110.968 15.5915C111.207 16.7197 112.505 17.5045 112.505 17.5045C114.043 18.1538 115.375 17.471 115.375 17.471C116.024 17.0619 116.673 16.8217 116.673 16.8217C116.771 16.777 116.878 16.7541 116.985 16.7545C117.093 16.755 117.199 16.7789 117.297 16.8244C117.394 16.8699 117.48 16.9361 117.55 17.0184C117.619 17.1006 117.67 17.1969 117.698 17.3006C117.63 18.4624 116.775 18.496 116.775 18.496C114.315 19.0084 111.035 18.6663 111.035 18.6663C111.274 18.3591 111.308 17.5729 111.308 17.5729L111.035 17.6414C109.601 17.5045 109.224 17.8131 109.224 17.8131C108.711 18.1203 108.472 18.7697 108.472 18.7697C107.823 19.0433 107.311 19.3841 106.934 19.7262C105.977 20.6506 105.875 21.6742 105.875 21.6742C105.807 22.9044 106.49 23.0761 106.49 23.0761C105.875 24.2701 106.797 24.7155 106.797 24.7155C107.207 24.4097 107.378 24.0662 107.378 24.0662C108.197 23.4532 110.589 22.9393 110.589 22.9393C110.11 23.3163 109.837 24.4418 109.837 24.4418C109.428 24.5787 108.743 24.3385 108.743 24.3385C108.368 24.3064 108.368 24.6136 108.368 24.6136L108.196 25.0227L107.957 25.7754C106.488 25.707 106.693 26.5602 106.693 26.5602L106.488 28.8489C106.83 29.702 107.376 29.5666 107.376 29.5666V28.7134H107.752C108.196 29.635 108.88 29.8403 108.88 29.8403H109.085C109.324 29.7719 109.428 30.1154 109.428 30.1154L109.666 30.1475L109.7 29.5666L109.972 29.5345C110.144 29.6029 110.246 29.8752 110.246 29.8752H110.45C110.518 29.7383 110.553 29.3627 110.553 29.3627C110.827 29.191 110.757 28.5779 110.757 28.5779C111.304 28.4746 111.885 28.6813 111.885 28.6813L111.852 29.191C112.261 29.8752 112.775 29.9785 112.775 29.9785C113.117 30.0791 113.628 30.1475 114.244 30.1824C115.304 30.2508 116.636 30.2145 117.866 30.1824C119.201 30.1151 120.534 30.0122 121.864 29.8738C122.001 30.0777 122.068 30.0456 122.068 30.0456C122.649 30.2494 123.298 29.6336 123.298 29.6336L123.094 30.0456C123.538 30.0106 124.017 29.7021 124.017 29.7021C124.136 29.8646 124.303 29.9849 124.495 30.0456L124.598 29.9422L124.735 30.1461C125.007 30.0092 125.179 29.5331 125.179 29.5331C125.488 29.8054 125.932 29.7369 125.932 29.7369L126.068 29.9408L126.169 29.7691C126.373 29.9087 126.75 30.0777 126.75 30.0777C127.162 29.5652 126.99 28.8153 126.99 28.8153L127.093 28.9843L127.194 28.5751C127.398 28.779 127.743 28.779 127.743 28.779C127.093 29.0513 127.468 29.5317 127.468 29.5317C127.548 29.6666 127.668 29.7734 127.811 29.8375C127.919 29.8241 128.029 29.852 128.117 29.9157C128.206 29.9794 128.267 30.0741 128.289 30.181C128.801 30.4212 129.11 29.8724 129.11 29.8724L129.178 29.4633C129.075 29.2231 129.075 28.8474 129.075 28.8474L129.178 29.2915L129.347 29.3948L130.509 30.3165L131.502 29.4954C132.048 29.8724 132.8 29.8724 132.8 29.8724C133.073 29.8724 132.869 29.5317 132.869 29.5317C133.758 30.2494 135.089 30.0777 135.089 30.0777C135.293 29.9087 135.158 29.8054 135.158 29.8054C135.398 29.702 135.807 30.0456 135.807 30.0456C136.148 30.2829 136.66 30.0777 136.66 30.0777C136.628 29.9087 136.456 29.8738 136.456 29.8738C136.696 29.8738 136.56 29.5331 136.56 29.5331C136.797 29.5652 137.004 29.8389 137.004 29.8389C137.207 30.114 137.585 30.0456 137.585 30.0456L137.617 29.8738C137.857 30.0456 138.401 30.0777 138.401 30.0777C138.541 29.9408 138.436 29.7369 138.436 29.7369C140.897 30.4896 144.551 30.35 144.551 30.35C149.302 30.3179 149.951 29.3948 149.951 29.3948C150.123 29.1882 150.019 28.9508 150.019 28.9508V28.6785C150.26 28.5388 150.635 28.6436 150.635 28.6436L150.292 29.3613L150.191 29.6015C151.009 30.5231 152.24 29.4982 152.24 29.4982V29.1896C152.48 29.089 152.684 28.8153 152.684 28.8153L153.233 28.9522C153.301 29.2608 153.096 29.6015 153.096 29.6015C153.949 29.8389 154.255 28.9522 154.255 28.9522L153.813 26.6607C153.129 25.8759 151.899 26.0114 151.899 26.0114L151.864 25.4305C151.796 25.2266 151.558 25.0897 151.352 25.0562L151.088 24.9613L150.839 25.0562C150.462 25.0883 149.915 25.0884 149.915 25.0884V25.0562L149.983 24.2687V23.382L149.915 23.0734L150.635 23.1767C151.181 23.4141 152.446 23.4141 152.446 23.4141C152.855 23.5858 152.856 23.995 152.856 23.995L152.719 24.4753C153.88 24.372 153.744 23.0734 153.744 23.0734C154.562 22.3891 154.357 20.5445 154.357 20.5445C154.253 20.1004 154.084 19.8267 153.98 19.7234L153.947 19.6913C153.947 18.5281 152.786 18.0156 152.786 18.0156C152.582 17.8438 152.342 17.8438 152.342 17.8438C152.069 17.7768 151.692 17.3314 151.692 17.3314C151.248 18.1511 151.624 18.7655 151.624 18.7655C150.94 18.6286 147.521 19.3129 147.521 19.3129C146.703 19.5181 145.337 19.0741 145.337 19.0741C144.481 18.5951 144.62 17.9807 144.62 17.9807C144.789 16.9892 145.61 17.1261 145.61 17.1261H145.85C146.568 16.9892 147.08 17.2629 147.08 17.2629C148.514 17.9458 151.075 17.2629 151.075 17.2629C152.305 16.784 152.649 15.1781 152.649 15.1781C151.828 15.9308 151.043 15.7939 151.043 15.7939C150.869 15.8288 150.698 15.8745 150.531 15.9308C150.667 15.3499 151.349 15.0762 151.349 15.0762C150.462 14.7005 149.506 15.3499 149.506 15.3499C149.028 15.8624 147.967 16.0327 147.967 16.0327C148.751 15.7255 149.163 14.8709 149.163 14.8709C148.651 15.1781 147.729 15.1097 147.729 15.1097C146.327 14.836 144.79 16.0997 144.79 16.0997C143.388 17.3984 144.072 18.8339 144.072 18.8339C144.244 19.243 144.653 19.5516 145.097 19.722C145.746 20.0306 146.428 20.099 146.428 20.099C147.898 20.2694 150.906 19.9273 150.906 19.9273C151.178 19.8588 151.487 19.8588 151.487 19.8588C150.938 20.2694 150.838 21.1924 150.838 21.1924C151.384 20.9885 151.793 20.9885 151.793 20.9885L151.761 21.1254C152.41 21.022 152.955 21.1254 152.955 21.1254C153.298 21.1575 153.367 20.8531 153.367 20.8531C153.776 21.4661 152.955 22.1517 152.955 22.1517C152.477 22.6293 151.419 22.2523 151.419 22.2523C150.838 21.98 149.332 21.8752 149.332 21.8752C149.06 21.5345 145.95 20.9201 145.95 20.9201C145.779 20.6115 145.473 20.7483 145.473 20.7483L145.198 20.7134C144.925 20.0641 144.311 20.4411 144.311 20.4411C143.867 20.3727 143.149 19.9636 142.737 19.7234C142.533 19.6215 142.431 19.5195 142.431 19.5195C144.071 17.7084 143.967 15.7618 143.967 15.7618C143.764 12.9592 141.475 12.5152 141.475 12.5152C141.134 11.6955 140.041 11.6271 140.041 11.6271L139.972 11.7988L140.073 12.0376C140.041 12.2094 140.245 12.5166 140.245 12.5166L139.801 12.6185L137.033 11.0127C136.351 10.8423 136.624 11.4218 136.624 11.4218L136.761 11.6271L139.153 13.5066C138.912 13.9842 138.094 14.6 138.094 14.6L137.786 14.6684L137.409 15.0776L137.443 15.625C137.272 15.7618 136.895 15.7618 136.895 15.7618L136.863 16.1039C137.1 16.446 137.784 16.446 137.784 16.446L138.33 16.992C138.502 17.0954 138.639 16.9585 138.639 16.9585L139.116 16.4125L139.766 16.1053C139.937 16.2073 140.246 16.2422 140.246 16.2422C139.802 16.4139 139.324 17.0619 139.324 17.0619C138.947 16.9585 138.332 17.0954 138.332 17.0954L138.263 17.471L138.244 17.5618L138.094 17.471C137.854 16.481 137.101 17.0954 137.101 17.0954C136.98 17.2264 136.907 17.3955 136.896 17.5739C136.885 17.7522 136.936 17.929 137.04 18.0742ZM137.055 18.7892C137.138 18.7515 137.205 18.6342 137.205 18.4946C137.205 18.455 137.196 18.416 137.18 18.3801L137.226 18.2656C137.333 18.3522 137.466 18.3991 137.604 18.3982C137.956 18.387 138.093 17.8788 138.093 17.8788H138.178L138.093 18.2879C137.749 18.4932 137.443 19.176 137.443 19.176L137.055 18.7892ZM137.269 17.8131C137.086 17.4333 137.478 17.2643 137.478 17.2643C137.956 17.1959 137.855 17.8103 137.855 17.8103C137.727 17.9709 137.624 18.031 137.538 18.0379C137.353 18.0533 137.272 17.8159 137.269 17.8131ZM118.617 25.0213C118.344 25.2615 117.865 25.6022 117.25 25.6371L116.976 26.0784L117.626 26.2502L117.763 26.3186L118.344 26.4903C118.344 26.4903 118.377 26.1133 118.823 26.1817C118.823 26.1817 119.13 25.3606 120.36 25.6357C120.36 25.6357 120.565 25.5673 120.838 25.7042C120.941 25.7726 121.043 25.841 121.145 25.9416L121.008 25.4975C121.008 25.4975 121.145 25.2936 121.485 25.3606C121.485 25.3606 121.349 25.2238 121.247 25.0199C121.102 24.82 121.019 24.5822 121.008 24.3357C121.008 24.3357 121.417 24.1667 121.828 24.2352V23.8581H122.066L121.622 23.5858C121.622 23.5858 120.494 24.8482 118.376 24.2352C117.957 24.1167 117.555 23.9444 117.18 23.7227C117.18 23.7227 117.591 24.7476 118.89 24.7127C118.891 24.7127 118.789 24.8496 118.617 25.0213ZM113.117 25.0213C113.8 25.2252 114.996 25.3299 114.996 25.3299C114.893 25.4305 114.791 25.5338 114.689 25.6022C114.314 25.9108 114.006 25.9793 114.006 25.9793C113.801 26.32 113.904 26.9372 113.904 26.9372C114.006 27.074 114.314 27.1746 114.587 27.2779C114.929 27.4148 115.27 27.5181 115.27 27.5181C114.853 27.6029 114.423 27.6029 114.006 27.5181C113.629 27.4832 113.392 27.3784 113.392 27.3784L113.562 27.0377C113.425 26.1482 112.093 26.0477 112.093 26.0477L112.162 25.6385C112.332 25.4319 112.504 25.1945 112.572 25.0227C112.615 24.9593 112.649 24.8908 112.674 24.8188C112.743 24.8873 112.913 24.9557 113.085 25.0227L113.117 25.0213ZM137.446 27.8574C137.343 27.9258 137.274 27.9942 137.274 28.1297C137.274 28.1297 137.343 28.3336 137.787 28.4704C137.787 28.4704 137.855 28.0962 137.752 27.6857C137.751 27.6857 137.582 27.7541 137.446 27.8574ZM121.864 27.2402L122.103 27.1718C122.103 27.1718 121.864 26.9679 121.83 26.8311C121.83 26.8311 121.83 26.5588 121.523 26.3186L121.557 26.5588V26.8995L121.659 27.0028V27.2751L121.864 27.2402ZM122.957 28.4383L122.992 28.9508L123.436 28.4704C123.401 28.4714 123.366 28.4624 123.336 28.4447C123.306 28.4269 123.281 28.401 123.264 28.3699C123.094 28.233 122.992 28.0292 122.992 28.0292L122.957 28.4383ZM124.502 25.0339C124.761 25.0046 124.979 25.0227 125.102 25.1707C125.099 24.9529 125.194 24.7351 125.52 24.6792C125.52 24.6792 124.802 24.5424 124.153 24.3022C123.743 24.1653 123.333 23.9936 123.196 23.7897L122.889 23.893L122.649 23.9936V24.0969C122.649 24.0969 123.298 24.1974 123.64 24.4739V24.3343C123.64 24.3357 124.261 24.453 124.502 25.0339ZM126.304 26.387C126.304 26.3186 126.339 26.2501 126.339 26.1468L126.852 26.6956C126.852 26.6956 126.952 27.0363 126.748 27.2416C126.748 27.2416 126.648 27.1411 126.511 27.0726C126.426 27.0295 126.332 27.0061 126.236 27.0042L126.204 26.5602C126.204 26.5588 126.272 26.4903 126.304 26.387ZM84.7574 7.73114C84.7574 7.73114 89.8487 10.3284 90.4631 10.8409C91.1124 11.3534 90.7703 11.6955 90.7703 11.6955C90.7703 11.6955 90.5315 12.0362 89.9506 12.1731C89.3683 12.275 89.5415 12.754 89.5415 12.754L89.473 24.8845C91.8651 27.2416 94.1202 25.9779 94.1202 25.9779C94.9748 25.7056 94.8729 24.9529 94.8729 24.9529C94.8729 24.9529 95.0446 13.5415 94.9748 13.1645C94.9064 12.7554 94.5657 12.7554 94.5657 12.7554C94.5657 12.7554 92.4473 11.4218 92.1052 11.1844C91.7282 10.9456 92.1387 10.57 92.1387 10.57C92.1387 10.57 95.7261 8.07604 96.24 7.59708C96.7524 7.15303 97.163 7.42532 97.163 7.42532C97.163 7.42532 103.074 10.7404 103.757 11.2528C104.44 11.7653 104.099 11.9357 104.099 11.9357L102.425 13.61C102.082 13.9521 102.253 14.2593 102.253 14.2593L102.184 25.4668C101.74 28.3364 97.23 28.7483 97.23 28.7483C91.7966 28.8167 89.2692 26.4931 89.2692 26.4931C87.1159 25.1596 84.6219 26.0812 84.6219 26.0812C81.4451 27.1746 81.205 29.2259 81.205 29.2259C81.1016 30.6963 82.7424 31.4126 82.7424 31.4126C84.7588 32.7113 87.6968 31.8902 87.6968 31.8902C90.1908 31.037 94.0518 29.7383 94.0518 29.7383C96.4774 29.2259 98.3904 29.635 98.3904 29.635C100.577 30.1154 101.432 31.1403 101.432 31.1403C102.832 32.5744 102.73 34.4191 102.73 34.4191C102.832 38.4533 97.8779 39.8189 97.8779 39.8189C95.6577 40.263 95.0433 39.7505 95.0433 39.7505C93.4709 39.407 95.1452 39.238 95.1452 39.238C95.1452 39.238 92.2742 39.407 95.384 39.2702C98.4938 39.1696 98.8359 37.6671 98.8359 37.6671C99.9641 35.6493 98.2215 35.3086 98.2215 35.3086C95.8294 34.9679 93.2335 36.9144 93.2335 36.9144C87.4245 39.5103 83.0175 37.3585 83.0175 37.3585C78.5071 35.6158 79.088 32.2672 79.088 32.2672C79.19 27.9286 81.9241 26.2208 81.9241 26.2208L81.7537 12.7917C81.6169 12.4496 81.2748 12.3476 81.2748 12.3476C81.2748 12.3476 79.3952 11.595 79.088 11.1858C78.8143 10.7753 79.2584 10.6049 79.2584 10.6049L83.5984 7.73393C84.1081 7.01478 84.7574 7.73114 84.7574 7.73114ZM0.565804 5.68122C-0.083521 5.23717 0.634227 4.99838 0.634227 4.99838L7.16099 0.214325H24.4149C28.1391 0.555046 27.8319 5.3391 27.8319 5.3391L27.7634 22.9686C21.7156 24.1304 18.8111 29.258 18.8111 29.258C13.1725 27.6521 3.50382 29.0862 3.50382 29.0862C2.64923 29.1547 3.23013 28.5053 3.23013 28.5053C6.57869 22.6279 13.0021 22.7997 13.0021 22.7997C13.4168 22.7913 13.8232 22.8024 14.2184 22.8276L14.2519 5.85996L0.565804 5.68122ZM9.17599 6.63775C10.4397 6.05685 10.2009 6.91144 10.2009 6.91144V16.7169C10.099 20.8517 6.85238 23.1083 6.85238 23.1083C5.89585 24.4069 2.24008 25.9094 2.24008 25.9094C0.976344 26.387 1.72761 25.1568 1.72761 25.1568C2.92292 23.382 2.92292 22.1154 2.92292 22.1154V10.3284C2.92292 9.98632 3.05977 9.84947 3.05977 9.84947L9.17599 6.63775ZM14.7965 22.8765C17.7834 23.1767 19.9743 24.2352 19.9743 24.2352L19.9296 16.6541L19.8836 16.689C19.8766 16.6806 17.486 13.5248 14.8077 16.8049L14.7965 22.8765ZM19.9241 15.8861L19.9059 12.7065C18.9913 13.5625 16.859 15.0022 14.8146 12.3364L14.8077 15.9364C17.0587 13.6519 19.0834 15.0748 19.9241 15.8861ZM19.9003 11.877L19.8696 6.56933C20.1084 5.68122 18.8796 5.92 18.8796 5.92L14.8286 5.86695L14.8188 11.3115C17.1103 15.1097 19.6657 12.1633 19.9003 11.877ZM67.0567 3.56289C67.0567 3.56289 74.5735 1.13734 75.53 0.898556C76.5201 0.659772 76.453 1.13735 76.453 1.13735C76.453 1.13735 76.2491 22.526 76.4195 23.2786C76.5899 24.0313 76.932 23.8274 76.932 23.8274C76.932 23.8274 78.6747 25.0576 79.0503 25.2266C79.4609 25.3984 79.2556 25.8075 79.2556 25.8075L75.0189 29.089C75.0189 29.089 68.1165 26.0477 67.5705 25.707C66.8877 25.2266 67.3317 24.9543 67.3317 24.9543L68.562 23.7241C68.562 23.7241 68.7659 6.23001 68.4251 5.30699C68.083 4.38397 66.9896 4.00834 66.9896 4.00834C66.7495 3.63131 67.0567 3.56289 67.0567 3.56289ZM58.6182 7.18515C58.857 7.76605 59.4714 7.6641 59.4714 7.6641C62.2056 6.57072 63.299 3.97343 63.299 3.97343C63.9818 1.41104 62.3759 0.728204 62.3759 0.728204C60.9404 -0.126391 59.882 0.556446 59.882 0.556446C58.2412 1.44455 57.7971 3.15375 57.7971 3.15375C57.388 5.40893 58.6182 7.18515 58.6182 7.18515ZM57.388 8.34694C57.388 8.34694 52.9461 11.0811 52.604 11.5936C52.2618 12.106 52.5369 12.3462 52.5369 12.3462C52.5369 12.3462 54.45 13.5415 54.9625 13.7468C55.5085 13.9172 55.3032 14.1909 55.3032 14.1909L55.44 23.0747C55.5085 23.3149 55.44 23.9279 55.44 23.9279C55.44 23.9279 54.6874 24.5438 54.2782 24.8859C53.8007 25.295 54.1749 25.707 54.1749 25.707L61.0438 29.1574C61.0438 29.1574 65.6896 25.8089 66.1001 25.6385C66.5093 25.4668 66.1001 25.1261 66.1001 25.1261C66.1001 25.1261 64.0837 23.9643 63.743 23.7925C63.4023 23.6207 63.5391 23.28 63.5391 23.28C63.5391 23.28 63.2654 14.4967 63.4707 13.7454C63.6411 13.0277 63.8799 13.2664 63.8799 13.2664C63.8799 13.2664 64.4943 13.0961 65.0417 12.754C65.5541 12.4119 65.0766 12.1046 65.0766 12.1046C65.0766 12.1046 58.6867 8.75748 58.2091 8.34694C57.7287 7.9364 57.388 8.34694 57.388 8.34694ZM29.0788 23.1418C29.0621 23.0733 29.6081 28.3015 36.3052 29.156L40.7471 25.5701C40.7471 25.5701 40.9859 25.1582 41.328 25.4989L48.8448 29.156L53.4236 25.5701C53.4236 25.5701 53.6289 25.1582 53.2868 24.749L50.1086 22.6293V13.9158C50.1086 13.9158 50.0751 13.5066 50.3474 13.4382L51.5776 12.4482C51.5776 12.4482 51.7829 12.106 51.3737 11.662C50.9967 11.1844 43.5148 7.49374 43.5148 7.49374C43.5148 7.49374 43.2411 7.0846 42.5569 7.56217C42.5569 7.56217 34.3907 10.8423 31.179 15.0441C31.1804 15.0441 28.618 16.6834 29.0788 23.1418ZM35.4855 20.3406C35.6908 20.7148 34.1184 18.1189 34.8711 15.2828C34.8711 15.2828 34.9744 12.7889 37.8775 11.5251L41.807 14.0875L41.7386 24.2002C41.7386 24.2002 41.2261 25.0562 39.9624 24.4753C39.9624 24.4753 36.7157 22.8695 35.4855 20.3406ZM223.788 8.61924C223.788 8.61924 219.348 11.3185 219.004 11.8659C218.664 12.3783 218.936 12.6171 218.936 12.6171C218.936 12.6171 220.85 13.8124 221.363 13.9842C221.909 14.156 221.703 14.4618 221.703 14.4618L221.84 23.3456C221.909 23.5858 221.84 24.1988 221.84 24.1988C221.84 24.1988 221.088 24.7797 220.679 25.1233C220.201 25.5324 220.578 25.9416 220.578 25.9416L227.445 29.427C227.445 29.427 232.093 26.0784 232.502 25.8731C232.911 25.7042 232.502 25.3606 232.502 25.3606C232.502 25.3606 230.519 24.1988 230.145 24.0299C229.801 23.8581 229.938 23.5174 229.938 23.5174C229.938 23.5174 229.666 14.7355 229.87 13.9842C230.041 13.3014 230.282 13.5066 230.282 13.5066C230.282 13.5066 230.895 13.3349 231.443 12.9942C231.956 12.652 231.475 12.3797 231.475 12.3797C231.475 12.3797 225.086 9.03118 224.608 8.62064C224.164 8.2101 223.788 8.61924 223.788 8.61924ZM155.861 5.71474C154.802 5.13384 155.555 4.86014 155.555 4.86014L160.883 1.44315C161.156 1.20437 161.396 1.54649 161.396 1.54649L166.248 4.38257C166.248 4.38257 172.807 0.897161 173.253 0.624864C173.525 0.453107 173.765 0.693292 173.765 0.693292L179.302 3.76815L184.871 0.282753C185.484 -0.229725 185.655 0.110995 185.655 0.110995L192.182 3.93852C192.728 4.28063 192.488 4.38257 192.488 4.38257V22.0833C192.728 24.2673 194.574 25.1247 194.574 25.1247C195.087 25.5338 194.847 25.8424 194.847 25.8424L189.822 29.4283C185.484 27.9579 185.075 24.4404 185.075 24.4404V7.52586C184.971 6.94496 184.562 6.80811 184.562 6.80811L181.208 5.09892L181.233 12.6157H184.836L181.25 17.7852L181.272 24.0075L183.779 25.7042C184.119 26.1133 183.575 26.1817 183.575 26.1817L178.379 29.427L170.658 25.3271C169.94 24.8468 170.486 24.5745 170.486 24.5745L172.161 23.516V18.0826H168.484L168.498 25.0576L169.737 25.841C170.114 26.2501 169.668 26.5225 169.668 26.5225L164.508 29.427L157.778 25.8731C157.197 25.4961 157.81 25.1917 157.81 25.1917L159.724 24.0983V8.44888L156.034 5.78455L155.861 5.71474ZM180.744 4.88807C179.725 4.57108 179.883 5.20365 179.883 5.20365L179.951 12.0711V12.6185H180.772L180.744 4.88807ZM180.789 18.084H179.951V23.1083C179.983 23.2451 180.395 23.4141 180.395 23.4141L180.807 23.6947L180.789 18.084ZM168.483 17.1121L171.51 12.6171H172.159V7.52586C172.059 7.25356 171.682 6.97987 171.682 6.97987L168.463 5.30559L168.483 17.1121ZM168.001 5.19528C167.057 5.21622 167.002 5.85298 167.002 5.85298L166.931 24.0997C166.931 24.2002 167.24 24.2687 167.24 24.2687L168.033 24.77L168.001 5.19528ZM195.486 23.1418C195.469 23.0733 196.015 28.3015 202.714 29.156L207.154 25.5701C207.154 25.5701 207.395 25.1582 207.735 25.4989L215.252 29.156L219.831 25.5701C219.831 25.5701 220.035 25.1582 219.694 24.749L216.517 22.6293V13.9158C216.517 13.9158 216.485 13.5066 216.757 13.4382L217.988 12.4482C217.988 12.4482 218.192 12.106 217.784 11.662C217.407 11.1844 209.923 7.49374 209.923 7.49374C209.923 7.49374 209.651 7.0846 208.966 7.56217C208.966 7.56217 200.799 10.8423 197.588 15.0441C197.586 15.0441 195.025 16.6834 195.486 23.1418ZM201.893 20.3406C202.097 20.7148 200.526 18.1189 201.28 15.2828C201.28 15.2828 201.38 12.7889 204.285 11.5251L208.214 14.0875L208.146 24.2002C208.146 24.2002 207.633 25.0562 206.368 24.4753C206.368 24.4753 203.123 22.8695 201.893 20.3406ZM233.458 3.56289C233.458 3.56289 240.939 1.13734 241.932 0.898556C242.887 0.659772 242.853 1.13735 242.853 1.13735C242.853 1.13735 242.649 22.7661 242.818 23.5188C242.99 24.2687 243.331 24.0997 243.331 24.0997C243.331 24.0997 245.074 25.3299 245.451 25.4989C245.86 25.6706 245.654 26.0798 245.654 26.0798L241.419 29.3613C241.419 29.3613 234.517 26.32 233.971 25.9443C233.287 25.5003 233.731 25.1945 233.731 25.1945L234.961 23.9978C234.961 23.9978 235.165 6.19649 234.824 5.27347C234.483 4.35045 233.39 4.00974 233.39 4.00974C233.151 3.5964 233.458 3.56289 233.458 3.56289ZM225.019 7.45884C225.259 8.03974 225.872 7.9364 225.872 7.9364C228.607 6.80811 229.701 4.21221 229.701 4.21221C230.382 1.68333 228.776 1.0005 228.776 1.0005C227.342 0.112393 226.284 0.828743 226.284 0.828743C224.641 1.71685 224.2 3.42604 224.2 3.42604C223.788 5.68122 225.019 7.45884 225.019 7.45884Z" fill="#434448"/>
</svg>
