<svg width="85" height="38" viewBox="0 0 85 38" fill="none" xmlns="http://www.w3.org/2000/svg">
<g filter="url(#filter0_dd_1_7806)">
<path d="M11.1326 28.9609C11.1326 30.2868 11.5746 30.7288 12.9006 30.7288L13.8287 30.7288C14.6243 30.7288 15.1105 31.1708 15.1105 32.099C15.1105 33.0271 14.6243 33.4691 13.8287 33.4691L4.28177 33.4691C3.48619 33.4691 3 33.0271 3 32.099C3 31.1708 3.48619 30.7288 4.28177 30.7288L4.76796 30.7288C6.09392 30.7288 6.53591 30.2868 6.53591 28.9609L6.53591 6.8614C6.53591 5.71223 6.09392 5.27024 4.76796 5.27024L4.28177 5.27024C3.48619 5.27024 3 4.82825 3 3.90007C3 2.9719 3.48619 2.52991 4.28177 2.52991L16.1271 2.52991C22.3591 2.52991 26.6022 6.24262 26.6022 11.7233C26.6022 17.2039 22.3591 21.226 16.1271 21.226L14.0939 21.226C13.2983 21.226 12.8122 20.8283 12.8122 19.8559C12.8122 18.9277 13.2983 18.4857 14.0939 18.4857L15.2873 18.4857C20.1492 18.4857 21.8287 15.0382 21.8287 11.7233C21.8287 8.40836 20.1492 5.27024 14.8453 5.27024L12.9006 5.27024C11.5746 5.27024 11.1326 5.71223 11.1326 7.0382L11.1326 28.9609Z" fill="#304F66"/>
<path d="M57.053 31.5686C56.3458 32.8945 54.5337 33.9995 52.5005 33.9995C50.1138 33.9995 47.7713 32.6735 47.7271 29.1376C45.7823 32.5851 42.3348 33.9995 38.7547 33.9995C33.3624 33.9995 29.1635 30.6846 29.1635 25.4249C29.1635 21.3586 31.2851 17.8227 35.7492 16.3642C32.5226 15.6128 30.4895 13.005 30.4895 9.99951C30.4895 5.04924 34.9536 1.99951 39.6387 1.99951C42.6 1.99951 45.1193 2.75089 46.4011 4.12106C47.8154 5.75642 45.4729 8.54095 43.705 6.99399C42.4674 5.88901 41.4066 4.82824 39.4619 4.82824C36.4563 4.82824 34.821 6.86139 34.821 9.69012C34.821 12.9608 37.1193 14.5962 40.832 14.5962L41.6276 14.5962C42.4232 14.5962 42.8652 15.0382 42.8652 16.0106C42.8652 16.9829 42.4232 17.4249 41.6276 17.4249C37.1635 17.4249 33.716 20.6956 33.716 24.8945C33.716 28.7398 35.8817 31.1708 39.5503 31.1708C43.705 31.1708 47.5503 27.5465 47.5503 19.1929L47.5503 17.3807L45.7823 17.3807C44.9867 17.3807 44.5447 16.8945 44.5447 15.9664C44.5447 15.0824 44.9867 14.6404 45.7823 14.6404L47.7713 14.6404L48.8762 10.4415C49.0088 9.99951 49.274 9.73432 49.7602 9.73432L51.0862 9.73432C51.5724 9.73432 51.8817 10.0437 51.8817 10.5299L51.8817 14.6404L55.0199 14.6404C55.8155 14.6404 56.2574 15.0382 56.2574 15.9664C56.2574 16.9387 55.8155 17.3807 55.0199 17.3807L51.8817 17.3807L51.8817 29.5354C51.8817 30.5962 52.3679 31.215 53.2519 31.215C54.0033 31.215 54.5337 30.773 55.1083 30.0658C55.5945 29.447 56.0364 29.226 56.6552 29.5354C57.5392 29.9774 57.4508 30.773 57.053 31.5686Z" fill="#304F66"/>
<path d="M68.3238 28.9609C68.3238 30.2868 68.7657 30.7288 70.0917 30.7288L70.5779 30.7288C71.3735 30.7288 71.8597 31.1708 71.8597 32.099C71.8597 33.0271 71.3735 33.4691 70.5779 33.4691L61.4729 33.4691C60.6773 33.4691 60.1912 33.0271 60.1912 32.099C60.1912 31.1708 60.6773 30.7288 61.4729 30.7288L61.9591 30.7288C63.2851 30.7288 63.7271 30.2868 63.7271 28.9609L63.7271 7.0382C63.7271 5.71223 63.2851 5.27024 61.9591 5.27024L61.4729 5.27024C60.6773 5.27024 60.1912 4.82825 60.1912 3.90007C60.1912 2.9719 60.6773 2.52991 61.4729 2.52991L80.6553 2.52991C81.274 2.52991 81.5834 2.8393 81.6276 3.45808L81.9812 9.02715C82.0254 9.55753 81.6276 9.86693 80.9646 9.86693C80.3017 9.86693 79.9039 9.51333 79.6387 8.76195C78.7105 6.33101 77.0309 5.27024 75.1304 5.27024L70.0917 5.27024C68.7657 5.27024 68.3238 5.71223 68.3238 7.0382L68.3238 28.9609ZM71.2409 19.8117C70.4453 19.8117 70.0033 19.3697 70.0033 18.4415C70.0033 17.5133 70.4453 17.0713 71.2409 17.0713L74.9978 17.0713C75.8818 17.0713 76.2796 16.5852 76.2796 15.878C76.2796 15.0824 76.7215 14.5962 77.6055 14.5962C78.5337 14.5962 78.9757 15.0824 78.9757 15.878L78.9757 21.005C78.9757 21.8006 78.5337 22.2868 77.6055 22.2868C76.7215 22.2868 76.2796 21.8006 76.2796 21.005C76.2796 20.1653 75.8818 19.8117 74.9978 19.8117L71.2409 19.8117Z" fill="#304F66"/>
</g>
<defs>
<filter id="filter0_dd_1_7806" x="0" y="-0.000488281" width="84.9846" height="38" filterUnits="userSpaceOnUse" color-interpolation-filters="sRGB">
<feFlood flood-opacity="0" result="BackgroundImageFix"/>
<feColorMatrix in="SourceAlpha" type="matrix" values="0 0 0 0 0 0 0 0 0 0 0 0 0 0 0 0 0 0 127 0" result="hardAlpha"/>
<feOffset dy="1"/>
<feGaussianBlur stdDeviation="1"/>
<feColorMatrix type="matrix" values="0 0 0 0 0.0627451 0 0 0 0 0.0941176 0 0 0 0 0.156863 0 0 0 0.06 0"/>
<feBlend mode="normal" in2="BackgroundImageFix" result="effect1_dropShadow_1_7806"/>
<feColorMatrix in="SourceAlpha" type="matrix" values="0 0 0 0 0 0 0 0 0 0 0 0 0 0 0 0 0 0 127 0" result="hardAlpha"/>
<feOffset dy="1"/>
<feGaussianBlur stdDeviation="1.5"/>
<feColorMatrix type="matrix" values="0 0 0 0 0.0627451 0 0 0 0 0.0941176 0 0 0 0 0.156863 0 0 0 0.1 0"/>
<feBlend mode="normal" in2="effect1_dropShadow_1_7806" result="effect2_dropShadow_1_7806"/>
<feBlend mode="normal" in="SourceGraphic" in2="effect2_dropShadow_1_7806" result="shape"/>
</filter>
</defs>
</svg>
