<svg width="202" height="40" viewBox="0 0 202 40" fill="none" xmlns="http://www.w3.org/2000/svg">
<path d="M77.0089 18.0148L76.6739 18.0085L76.6676 17.0058C76.8833 16.9695 77.0645 17.0228 77.2075 17.1686C77.4057 17.4206 77.3317 17.8879 77.0089 18.0148ZM77.7828 16.9327C77.1887 16.6807 76.4084 16.7448 75.7645 16.7349C75.7645 16.8085 75.7479 16.8789 75.7842 16.9327C75.8564 16.9327 76.0021 16.9789 76.0021 16.9789V18.0085C75.9483 18.0085 75.8196 18.0148 75.7842 18.0323C75.7842 18.1049 75.7645 18.1766 75.8012 18.23C76.4322 18.195 77.0443 18.4107 77.6398 18.213C77.8905 18.0515 78.0537 17.7807 78.0537 17.4744C78.0362 17.2758 77.9824 17.0403 77.7828 16.9327Z" fill="#434448"/>
<path d="M78.8837 8.82009L79.0819 8.89229C79.0819 8.89229 79.0029 9.0461 79.0491 9.12548C79.1043 9.22323 79.2003 9.32457 79.2976 9.27076C79.442 9.19274 79.5325 9.01964 79.4787 8.89229H79.6218L79.6424 9.02233C79.6227 9.25596 79.5518 9.42457 79.2352 9.40709C78.9455 9.39004 78.8406 9.08332 78.8837 8.82009ZM79.5119 9.69184C79.5092 9.68691 79.759 9.76987 79.759 9.76987L79.8366 9.87166L79.9563 8.49094L79.8366 8.39453C79.8366 8.39453 79.6554 8.64879 79.2491 8.64879C79.0272 8.64879 78.789 8.60171 78.5944 8.59363C78.6653 8.82772 78.563 9.1035 78.7088 9.37525C78.8653 9.66628 79.1886 9.71023 79.5119 9.69184Z" fill="#434448"/>
<path d="M81.0991 8.80809H81.2422C81.1884 8.93544 81.2789 9.10853 81.4207 9.18835C81.5202 9.24082 81.6148 9.13948 81.6718 9.04172C81.718 8.96235 81.6377 8.80853 81.6377 8.80853L81.8377 8.73813C81.8794 9.00001 81.7745 9.30674 81.4843 9.32333C81.1691 9.34082 81.0982 9.17266 81.0794 8.93858L81.0991 8.80809ZM81.5996 9.52064C82.057 9.45427 82.0884 8.82781 82.0713 8.39463C81.7834 8.53813 81.6561 8.59463 81.3695 8.60539C81.0789 8.6166 80.8399 8.34082 80.8399 8.34082L80.7372 8.39463L81.0081 9.8175C81.0081 9.8175 81.1619 9.58252 81.5996 9.52064Z" fill="#434448"/>
<path d="M96.5186 19.2934C96.5003 19.0248 96.411 18.7719 96.1415 18.645C95.9958 18.5912 95.7787 18.5548 95.6541 18.6642C95.4204 18.7903 95.4375 19.0418 95.4742 19.2396C95.5281 19.3306 95.6007 19.4382 95.7263 19.4028C95.9604 19.2593 95.5451 18.9889 95.8877 18.8983C96.0496 18.8799 96.1415 19.0786 96.1953 19.1867C96.2119 19.4566 96.1034 19.6911 95.8693 19.8176C95.6182 19.8526 95.3662 19.9073 95.1491 19.7638C94.9155 19.5835 94.7352 19.3311 94.7169 19.0252C94.6814 18.6104 94.9523 18.2136 95.329 18.0333C96.1581 17.6373 96.7532 18.3768 97.346 18.8983C97.0415 18.9347 96.7169 19.0055 96.5186 19.2934ZM93.185 17.1324C93.0231 16.8795 93.0953 16.5207 93.2047 16.2862C93.3653 16.014 93.6357 15.7629 93.9433 15.7086C94.3743 15.6185 94.7527 15.7992 95.0787 16.0508C95.5451 16.5207 95.8343 17.1692 96.2308 17.7082C95.7787 17.5468 95.1321 17.6185 94.7527 18.0149C94.6281 18.2302 94.5016 18.4297 94.4648 18.6813C94.1231 18.1598 93.6541 17.6369 93.185 17.1324ZM89.2052 18.7903C88.1236 18.6817 87.116 18.8441 86.1774 19.1687C86.268 18.5553 86.2864 17.8719 86.2509 17.2584C86.7725 16.592 87.6738 16.6651 88.4832 16.6113C89.9245 16.5562 91.1294 16.8544 92.5366 17.1329C92.8258 17.962 93.7612 18.5203 94.0855 19.3306C92.4294 19.4737 90.8805 18.8795 89.2052 18.7903ZM88.737 19.727C87.9433 19.7808 87.0971 19.7445 86.3944 19.5104C87.0236 19.1499 87.8357 19.1149 88.5913 19.0956L88.7716 19.1149C88.7191 19.3127 88.7716 19.5279 88.737 19.727ZM83.2236 19.727L77.0805 18.6275C76.2343 18.466 75.2424 18.5373 74.433 18.6445C74.576 18.1055 74.6303 17.4929 74.576 16.9333C74.6666 16.6279 75.0267 16.6459 75.2608 16.5015C76.2684 16.2494 77.3312 16.5015 78.3236 16.6104C80.8281 17.0781 83.2783 17.6364 85.8895 17.7983C85.9801 18.3759 85.8357 18.988 85.8527 19.5459C86.0339 19.8342 86.3572 19.8167 86.6281 19.888C85.4944 19.9607 84.3222 19.871 83.2236 19.727ZM76.8469 19.4929C76.0545 19.4737 75.1886 19.4378 74.4684 19.1862L74.3792 19.0781C75.0639 18.7347 76.0899 18.7898 76.8639 18.9512L76.8469 19.4929ZM66.4877 19.5104C67.2626 19.2037 68.0738 19.0059 68.811 18.5911C68.0384 18.1952 67.2092 17.9077 66.4877 17.384C68.9738 17.5826 71.6411 17.727 74.2518 17.6006C74.2702 18.1768 74.0366 18.7176 74.0913 19.2391C74.3792 19.5997 74.8101 19.5638 75.1886 19.6728C72.3245 19.9068 69.2814 19.8172 66.4877 19.5104ZM71.8025 15.3311C72.6317 15.3311 73.316 15.0239 74.0716 14.8629C74.7931 14.7539 75.5128 14.8979 76.1621 14.6651C76.1976 15.0243 76.3958 15.3674 76.2514 15.7459L75.2608 15.8539C74.8469 15.9799 74.3595 16.1777 74.1792 16.5746C74.0908 16.4485 74.2514 16.1418 73.9819 16.1418C73.9092 16.1418 73.82 16.1777 73.7837 16.2678C73.8007 16.3405 73.8545 16.4306 73.8204 16.5024C73.6038 16.5746 73.5133 16.7723 73.6406 16.953C73.6038 16.9889 73.5326 16.9705 73.4962 16.9705C73.316 16.845 73.3873 16.592 73.1899 16.4844C73.1177 16.3409 73.316 16.2503 73.1899 16.1418C73.0994 16.0701 72.9379 16.0701 72.8653 16.1418C72.7577 16.3405 72.9191 16.6284 72.5944 16.6822L72.6671 17.0073C72.4334 17.1149 72.4146 16.8266 72.3424 16.7185C72.307 16.5382 72.0904 16.4311 72.2532 16.2503C72.307 16.1607 72.181 16.088 72.1088 16.088C71.9998 16.0701 71.929 16.1418 71.8922 16.214C72.0195 16.4306 71.7657 16.5212 71.6227 16.5746L71.6581 17.0073C71.4783 17.0073 71.4245 16.8095 71.3702 16.6822C71.4056 16.5024 71.172 16.5387 71.1536 16.3759C71.2796 15.9795 71.3164 15.4387 71.8025 15.3311ZM75.3689 10.9719C75.55 9.7472 76.8101 9.13375 77.5487 8.28757C77.5671 8.80909 77.1532 9.17008 76.8101 9.51223L75.3689 10.9719ZM77.0088 7.53107C76.9904 8.25035 76.2164 8.62882 75.7119 9.02568C75.9272 8.41357 76.3962 7.80012 77.0088 7.53107ZM77.3859 6.91761C77.9442 6.84631 78.4689 7.00774 78.8657 7.38711C78.9079 7.31671 79.0088 7.27815 79.0442 7.20505C79.0442 7.18757 79.0442 7.15124 79.0272 7.1342C79.3716 7.02792 79.742 6.92657 80.1231 6.90101C80.5765 6.86873 81.0442 6.92927 81.4949 7.00729C81.5133 7.07994 81.5841 7.18756 81.6747 7.18756C81.9088 7.06156 82.0334 6.79205 82.2886 6.68263C82.5043 6.61178 82.7917 6.55797 83.0088 6.57545C82.9352 6.89922 82.9182 7.24093 82.6303 7.49474C82.5213 7.63824 82.2886 7.5481 82.2518 7.72882C82.6657 8.30416 82.6119 9.2055 82.4675 9.8907C82.3769 10.0526 82.3056 10.1764 82.0339 10.2687C81.9366 10.3028 81.7698 10.3055 81.7698 10.3055L81.7473 10.4136L82.1101 10.6432L82.0774 10.8517L81.7316 10.6894L81.6819 10.8719L82.0366 11.1019L81.9994 11.2768L81.6384 11.1329L81.5675 11.3495L81.9317 11.5692L81.859 11.8916L80.7577 11.4651C80.7577 11.4651 80.7577 10.9768 80.7563 10.9719C80.9361 10.8813 81.1164 10.7185 81.1702 10.5212C81.1886 10.4136 81.224 10.2329 81.1164 10.1427C80.8931 10.2907 80.7222 10.3598 80.4451 10.3831C80.1021 10.4149 79.8944 10.3109 79.7657 10.2329C79.6581 10.4136 79.7173 10.588 79.8366 10.7548C79.9406 10.8992 80.2272 10.9862 80.2272 10.9862V11.5073L79.1891 11.9983L79.0944 11.7145L79.4272 11.5073L79.3536 11.2571L79.0092 11.4575L78.9384 11.2894L79.3133 11.0499L79.229 10.8208L78.8465 11.0261L78.803 10.8938L79.1774 10.6127C79.1774 10.6127 79.1563 10.4781 79.1536 10.4674C78.846 10.4306 78.4689 10.3598 78.3613 9.99923C78.1814 9.44093 78.1617 8.75573 78.1985 8.16111C78.2155 8.07097 78.4321 8.01716 78.2877 7.92703C77.7657 7.94631 77.5491 7.35079 77.3864 6.99115L77.3859 6.91761ZM78.1438 5.51313C77.9823 5.45528 77.968 5.29877 77.968 5.29877C78.1837 5.10102 78.5222 4.93689 78.7917 4.81088C78.8101 4.81492 78.7734 5.17276 78.7931 5.17411C78.763 5.25617 78.6917 5.19833 78.5765 5.34631C78.4792 5.47007 78.6003 5.71626 78.7563 5.70595C78.8944 5.69608 78.9496 5.68936 78.9536 5.69339C79.0272 5.91043 78.868 6.00909 78.7025 6.08891C78.4671 6.20326 78.3608 5.89115 78.3608 5.89115L78.5411 5.80102L78.307 5.35169C78.307 5.35124 78.2281 5.54407 78.1438 5.51313ZM81.8375 6.34138C81.8178 6.39519 81.7648 6.43196 81.7294 6.46828C80.7204 6.27052 79.585 6.35932 78.6482 6.64676C78.5944 6.61178 78.5406 6.59295 78.5038 6.53913C79.4236 6.14362 80.7747 6.08846 81.8375 6.34138ZM81.1698 4.63016C81.1644 4.62747 80.9765 4.95617 80.9716 4.97232C80.8626 4.9907 80.6828 4.93151 80.6657 5.11178C80.5751 5.36425 80.7563 5.549 80.955 5.47725C80.955 5.58443 80.876 5.73555 80.7379 5.78308C80.5778 5.83824 80.3922 5.75483 80.337 5.60998L80.3411 5.49564L80.5249 5.50191L80.5213 4.93958L80.324 4.93689L80.3415 4.7203C80.3415 4.7203 80.1563 4.67097 80.0577 4.68174C79.9577 4.69295 79.824 4.72255 79.824 4.72255V4.97187L79.6586 4.97277L79.6532 5.51761L79.8738 5.51357C79.8738 5.51357 79.8814 5.79474 79.7124 5.83734C79.4339 5.90774 79.3469 5.86873 79.2931 5.68981L79.2787 5.56783C79.2787 5.56783 79.5348 5.57411 79.5285 5.36155C79.5245 5.23016 79.5115 5.08308 79.3577 5.06604C79.2527 5.05348 79.2317 5.11268 79.1213 5.11268C79.107 5.09698 79.0137 4.73913 79.0097 4.7212C79.6747 4.50371 80.4671 4.39608 81.1698 4.63016ZM81.333 5.49519C81.5128 5.60281 81.698 5.4629 81.711 5.29608C81.7218 5.14317 81.5388 5.0508 81.4128 5.03376L81.3864 4.68353L82.1604 5.02479L82.1065 5.26066L81.8716 5.15169L81.7294 5.58353L81.8913 5.65618C81.8913 5.65618 81.8029 5.95303 81.4406 5.87276C81.2908 5.83958 81.2792 5.63913 81.333 5.49519ZM85.3146 10.0885C84.5563 9.3324 83.1518 9.04362 83.0626 7.83645C83.7285 8.71896 85.0608 8.89967 85.3146 10.0885ZM85.0254 8.52165C84.5025 8.16111 83.5312 7.94586 83.4931 7.09788C84.2146 7.26066 84.6482 7.92658 85.0254 8.52165ZM83.9267 14.2508C83.476 14.1239 82.8469 14.1239 82.5379 13.6006C82.3052 13.2243 82.1792 12.6656 82.3958 12.2149C82.4128 13.1149 83.35 13.6732 83.9267 14.2508ZM84.576 14.1952C83.9267 13.2239 82.45 12.5925 82.6299 11.2234C82.9545 12.3589 84.7899 12.8275 84.576 14.1952ZM83.1343 9.04361C83.8173 9.92613 85.2604 10.3943 85.1882 11.6741C84.576 10.7548 83.1343 10.2867 83.1343 9.04361ZM84.9527 12.971C84.3222 11.962 82.7007 11.4764 82.9716 10.1248C83.4393 11.1696 84.9895 11.6741 84.9527 12.971ZM79.8729 13.349L80.0899 13.332C79.8729 13.5297 79.7653 13.7992 79.7285 14.1064L79.2778 14.1239C79.4038 13.8714 79.5119 13.4566 79.8729 13.349ZM81.0621 13.9799L80.3039 14.0508C80.3236 13.7822 80.3958 13.4566 80.6299 13.2947C80.9361 13.3858 81.0088 13.7095 81.0621 13.9799ZM82.1424 13.9441L81.6204 13.8903C81.5482 13.6732 81.4406 13.4566 81.2424 13.2764C81.6747 13.2051 81.9456 13.6373 82.1424 13.9441ZM81.4038 12.7544L79.7823 12.8445C79.6577 12.8095 79.6025 12.6468 79.6931 12.54C79.9621 12.323 80.2514 12.0885 80.5944 12.0714C80.9545 12.1423 81.3133 12.2329 81.5482 12.5028C81.5837 12.6293 81.5128 12.7369 81.4038 12.7544ZM77.7303 15.3131L77.7119 15.8894L77.3859 15.8535C77.4056 15.6557 77.5487 15.458 77.7303 15.3131ZM77.4222 14.9167C77.6393 14.1239 78.8653 13.5485 78.7559 12.5203C78.9725 12.8275 79.0083 13.2768 78.8989 13.6194C78.6841 14.2678 77.8904 14.4849 77.4222 14.9167ZM77.0088 15.8163L76.6671 15.7817C76.7025 15.7086 76.7734 15.6364 76.8469 15.5647C76.955 15.5826 76.955 15.7279 77.0088 15.8163ZM76.8101 14.6647C76.5052 13.6925 77.5855 13.0607 77.9994 12.2683C78.1805 11.9979 78.2698 11.71 78.3604 11.4033C78.7917 12.7732 77.3146 13.5656 76.8101 14.6647ZM75.8012 12.3934C75.6039 11.0786 77.0639 10.3405 77.6025 9.40415C77.5487 10.6293 76.2886 11.3687 75.8012 12.3934ZM77.8734 10.4844C78.2348 11.8723 76.4859 12.5741 76.2689 13.8172C76.0348 12.4127 77.3859 11.6203 77.8734 10.4844ZM86.0882 13.1876C86.2312 12.9889 86.0882 12.7364 86.0527 12.5199L85.7819 11.6199C87.6186 11.9616 89.2402 13.0064 91.1505 13.2759C91.2388 13.5831 91.5635 13.7817 91.8169 13.8898L92.4648 13.9436C92.5016 14.5382 92.7182 15.0432 93.0769 15.492C92.8061 15.7813 92.6263 16.1409 92.4648 16.4297C90.8971 16.1956 89.3124 15.8158 87.6186 15.9965C87.9079 15.5642 87.7447 15.0234 87.6186 14.5553C87.3491 14.3575 87.2572 13.9068 86.8617 13.871C86.5922 14.1777 87.1509 14.4113 87.1509 14.7535C87.294 15.223 87.2047 15.7454 86.9155 16.1059C86.52 16.3037 85.8182 16.5207 85.8357 17.1324C84.9527 17.1324 84.1604 16.9701 83.3308 16.862C82.9536 16.5378 82.7003 15.997 82.142 16.0871C82.033 16.0333 81.9079 15.997 81.7832 16.0508C81.8541 16.375 81.2958 16.2862 81.5294 16.6275C81.2236 16.7544 81.3326 16.2494 81.1155 16.1409C81.1523 15.979 81.3496 15.7275 81.0787 15.6553C80.9541 15.636 80.8621 15.7625 80.8451 15.853C81.0249 16.1961 80.3958 16.1409 80.6478 16.4835C80.5402 16.5373 80.3953 16.3938 80.3774 16.2858C80.4128 16.0871 80.1065 15.979 80.2698 15.7624C80.3406 15.7275 80.3406 15.6015 80.2698 15.5477C80.216 15.4207 80.0698 15.5113 79.9989 15.5477C79.8545 15.7086 80.1249 16.1059 79.7281 16.0692L79.711 16.3037C79.35 16.3938 79.5312 15.9252 79.2603 15.8355C79.2774 15.6557 79.5666 15.4387 79.2958 15.3131C79.1882 15.3131 79.0603 15.3849 79.0263 15.5113C79.0263 15.6728 78.9527 15.853 78.7554 15.853L78.7384 16.1409C78.3769 16.1956 78.5756 15.7275 78.3061 15.6185C78.3402 15.2409 78.5402 14.8624 78.8644 14.6992C80.3402 14.8436 81.9074 14.0158 83.2227 14.9163C83.8164 14.592 84.772 15.2947 85.0778 14.4113L85.2052 13.871C85.4012 14.0163 85.5823 14.2315 85.7805 14.3391C85.942 14.1947 85.7805 14.0338 85.7635 13.8898C85.6007 13.4562 85.4742 13.0243 85.4204 12.5391C85.6931 12.6656 85.8186 13.0248 86.0882 13.1876ZM91.7097 12.1961C91.9604 11.8723 92.285 11.7468 92.6464 11.7275C92.9881 11.7468 93.2926 11.853 93.511 12.1602C94.0325 12.8997 93.2218 14.1692 94.285 15.1338C94.033 15.0611 93.8357 15.2046 93.6003 15.1876C92.9514 14.61 93.0236 13.6737 93.1142 12.8638C93.0603 12.701 92.9881 12.5033 92.7895 12.4131C92.5559 12.3593 92.2846 12.4131 92.1603 12.6472C92.142 12.7907 92.1774 13.0257 92.3559 13.0616C92.4294 13.0616 92.4832 12.9894 92.5186 12.9355C92.4832 12.8642 92.4478 12.81 92.4648 12.719C92.5186 12.6477 92.646 12.6477 92.7357 12.684C92.8801 12.81 92.8263 12.9714 92.7725 13.1346C92.5926 13.3324 92.3388 13.3862 92.0882 13.3324C91.9249 13.2423 91.7097 13.0979 91.6559 12.9176C91.5635 12.6835 91.6016 12.3934 91.7097 12.1961ZM91.763 10.0163C90.3586 10.1961 88.3572 11.5302 87.2944 9.87187C87.0065 9.3324 87.0608 8.55707 87.4572 8.08936C88.737 6.73689 90.4294 8.2333 91.9065 7.81851C92.1231 7.63868 92.3559 7.42209 92.3388 7.11671L92.3218 6.75617C92.5016 7.00774 92.5186 7.44137 92.3756 7.72927C92.3021 7.9629 92.0509 8.16111 91.8173 8.25079C90.5375 8.45079 89.3666 7.4768 88.1236 8.05303C87.7819 8.3046 87.6191 8.66514 87.6021 9.06245C87.6021 9.35079 87.6742 9.60236 87.8716 9.80012C88.9343 10.7019 90.1774 9.6925 91.2944 9.58443C91.907 9.49474 92.5375 9.65617 92.8805 10.1252C92.8267 10.2145 92.7186 10.3046 92.6464 10.3768C92.3756 10.1965 92.1047 9.99877 91.763 10.0163ZM90.7173 9.4768C90.0155 9.58442 89.3491 9.99922 88.6281 9.78218C88.4294 9.69205 88.4478 9.44048 88.52 9.27725C88.7186 9.00864 89.0603 9.16963 89.3491 9.15259L90.7173 9.4768ZM92.411 8.70146C92.0877 8.97187 91.637 8.98981 91.2218 8.936C90.1586 8.95348 89.0958 8.05259 88.1236 8.7916L88.0155 8.95349C87.9617 8.7916 88.0527 8.45035 88.3204 8.35797C89.7276 7.6916 92.2482 9.92568 92.6819 7.42209C92.8433 7.85528 92.7895 8.39518 92.411 8.70146ZM94.0442 9.73106C94.224 9.62299 94.4949 9.58712 94.6917 9.67725C94.9455 9.80416 95.1967 10.0194 95.2137 10.3257C95.1967 11.4252 94.729 12.2405 94.7998 13.4786C94.8455 14.2481 94.9263 14.8118 95.1429 15.4239C94.1164 14.688 94.055 13.919 94.0796 12.5593C94.0873 12.1302 93.7325 11.8073 93.3675 11.5692C93.085 11.3844 92.7998 11.4602 92.5303 11.4423C93.0877 10.9208 93.6119 10.3252 94.0442 9.73106ZM95.4675 7.5768C95.5922 8.09608 96.1926 8.38308 96.6617 8.43689C96.2478 8.81537 96.1213 9.51895 95.4895 9.62658C95.0756 9.6629 94.7155 9.35617 94.5895 8.99564C94.3729 8.23868 95.1442 8.1351 95.4675 7.5768ZM95.3016 13.2844C95.3016 12.0687 95.6106 10.8463 96.216 9.83196C96.5065 9.34407 96.8402 9.01133 96.8402 9.01133L96.8348 8.14317C96.4931 8.12389 96.1491 7.98981 95.9056 7.71133C95.6716 7.44093 95.5913 7.25393 95.5913 6.84855C95.5913 6.42703 95.8935 5.98622 96.3415 5.85035C96.7684 5.7212 97.2231 5.80819 97.5043 6.1203C97.7316 6.37501 97.7752 6.59967 97.7752 6.90101C97.7752 7.27501 97.5254 7.56559 97.2231 7.56559C97.0352 7.56559 96.8186 7.52344 96.6935 7.29474C96.6016 7.12523 96.5949 6.80909 96.7868 6.80909C97.0469 6.80909 96.8186 6.99384 96.9747 7.06604C97.0603 7.10685 97.1783 7.09429 97.2231 7.0046C97.2756 6.90057 97.2545 6.76514 97.1653 6.66559C97.0379 6.5203 96.8644 6.49608 96.6805 6.55797C96.4137 6.64496 96.3101 6.95214 96.381 7.22299C96.4859 7.6185 96.7173 7.73017 97.0263 7.77994L98.1182 7.78263L98.7316 7.36783L99.4908 6.99384C99.4908 6.99384 99.4186 6.62344 99.2926 6.51627L98.3568 7.01492C98.3254 6.50506 98.1056 5.91178 97.7065 5.58353C97.307 5.25797 96.6227 5.09788 96.0074 5.36155C95.2899 5.67097 94.9577 6.38039 95.0047 7.09743C94.5186 7.71133 93.5097 8.2333 93.9415 9.15214C93.5092 9.16963 93.2926 9.67411 93.0047 9.90864L92.4281 9.44048L92.8958 9.11582C93.3097 8.62882 93.5263 7.92658 93.2751 7.29698C93.0756 6.64721 92.5003 5.98173 91.7958 5.89115C91.4738 5.8203 91.1662 5.89115 90.9325 6.08891C90.7698 6.25169 90.733 6.50326 90.7527 6.70236C90.8249 6.91806 91.0038 7.09788 91.2375 7.08084C91.5276 6.99115 91.1308 6.84631 91.2375 6.66649C91.2742 6.52254 91.4541 6.50371 91.6003 6.52254C91.8155 6.61223 91.942 6.84631 91.8877 7.062C91.8155 7.24183 91.6173 7.36873 91.437 7.40505C90.1572 7.35124 88.7895 6.43285 87.6003 7.27904C86.9339 7.60326 86.5908 8.28801 86.5186 8.97277C86.5003 9.69295 86.7541 10.3055 87.2756 10.7557C88.5186 11.7822 90.2478 10.9898 91.5621 10.6302C91.7958 10.575 92.1034 10.575 92.2124 10.8095C91.6541 11.3329 91.0415 11.8912 91.0038 12.6472C89.168 12.2692 87.6177 11.4042 85.781 11.0086C85.5639 11.0266 85.5106 10.7557 85.455 10.6302L86.1406 10.8647L86.176 10.8095C85.8881 10.2696 85.6545 9.69295 85.4204 9.15348C85.6541 9.17097 85.8343 9.38756 86.0684 9.35124V9.24227C85.2406 8.34227 84.916 6.81043 83.5455 6.5768C83.5115 6.30595 83.6729 6.07187 83.6545 5.8203H83.4913L82.159 6.19788L82.1052 6.14407C82.1944 5.76515 82.4482 5.45931 82.6456 5.13465C82.5366 4.97232 82.8088 4.88173 82.7182 4.68397C82.6644 4.44989 82.3751 4.46784 82.2146 4.50416C82.25 3.8916 81.6191 4.55797 81.5285 4.05483C81.4025 3.96469 81.2227 4.01851 81.1146 4.10864L80.9532 3.8916C80.8074 3.85528 80.6285 3.8916 80.5393 3.94541C80.4841 3.62075 80.0886 3.42299 80.2316 3.06245C80.376 3.04541 80.4837 3.08173 80.6285 3.09922C80.6469 2.95528 80.6469 2.70147 80.6285 2.54093L80.1608 2.55842V2.05483C79.9608 2.03644 79.798 2.10729 79.5841 2.09025C79.5841 2.25259 79.6738 2.45124 79.6738 2.63107H79.1877C79.1693 2.81133 79.2231 2.99025 79.2415 3.17187C79.403 3.18981 79.5478 3.02658 79.7106 3.13555C79.8182 3.51402 79.5308 3.73016 79.4769 4.03554L79.4402 3.98173C79.2958 3.96469 79.1693 3.92792 79.0603 4.03554C79.0263 4.52299 78.6648 3.8916 78.485 4.25259C78.5218 4.73824 78.0527 4.17949 77.9263 4.54048C78.0169 4.97277 77.585 4.6481 77.4586 4.90102C77.2971 5.09878 77.6016 5.27904 77.5124 5.45931C77.8357 5.69339 78.089 6.07142 78.1971 6.4324C77.711 6.32344 77.1173 6.3786 76.6662 6.21537C76.6846 6.50326 76.8998 6.73689 76.8819 7.00774C76.0343 7.22434 75.4953 8.07097 75.2971 8.8629C75.1711 9.29653 74.7743 9.63823 74.7926 10.1068C74.9711 10.1252 75.1173 9.87232 75.2787 9.94362C75.1343 10.5934 74.7375 11.1329 74.6837 11.8181C74.8639 11.9441 75.0989 11.5472 75.333 11.5472C75.2424 12.2508 75.333 12.9346 75.1173 13.5831C75.2787 13.8898 75.5128 13.3315 75.7294 13.3674C75.711 13.6001 75.8003 13.8898 75.7294 14.1059C74.1985 14.1777 72.8281 14.6817 71.3523 14.8974C70.7926 15.114 70.7743 15.7813 70.5774 16.2494C70.4684 16.6642 71.0819 16.6275 70.9729 17.023C68.5778 17.0423 66.2886 16.6992 64.0021 16.4835C65.0285 17.2759 66.1281 17.9252 67.2451 18.5194V18.5732C66.0375 19.114 64.7577 19.4194 63.4778 19.7624C66.6671 20.2118 69.9267 20.5185 73.3155 20.4095C74.5586 20.3557 75.8186 20.3207 76.9895 20.0499C77.2604 19.8701 77.063 19.492 77.1877 19.2755C80.9536 19.7624 84.6998 21.1122 88.6994 20.2844C89.2393 20.2844 88.933 19.653 89.0595 19.4194C90.8962 19.4553 92.5913 20.2311 94.4635 19.8876C94.7698 20.3203 95.2204 20.536 95.7249 20.4284C96.5899 20.3015 97.0572 19.0046 98.085 19.492C98.855 20.01 100.286 20.6212 101.6 20.6759L101.078 20.1243C97.2662 19.4077 95.3016 16.2472 95.3016 13.2844Z" fill="#434448"/>
<path d="M84.2528 18.2115L84.2514 18.0147L83.2684 17.8523V18.086L83.3631 18.1012L83.3684 18.9694C83.2963 19.1147 83.1254 19.1147 82.9545 19.1147C82.5841 19.1147 82.7196 17.781 82.7196 17.781L81.838 17.655L81.8366 17.868C81.8366 17.868 81.9469 17.8999 81.9994 17.9259C82.0339 18.3766 81.8918 18.8985 82.3057 19.1864C82.5931 19.3662 83.0362 19.4591 83.4106 19.2725C83.4263 19.2725 83.5326 19.4012 83.5326 19.4012L84.2146 19.4931L84.22 19.2725L84.09 19.2393L84.0967 18.1954L84.2528 18.2115Z" fill="#434448"/>
<path d="M81.0844 18.6553C80.9265 18.7006 80.5561 18.6473 80.5561 18.6473L80.5574 18.1948C80.5574 18.1948 80.718 18.2195 80.7691 18.2769C80.848 18.3661 80.9086 18.4831 81.0619 18.4293C81.0395 18.4293 81.0687 17.9222 81.0556 17.9136C81.0018 17.8787 80.8624 17.8881 80.8453 17.9787C80.7561 18.032 80.5404 17.9787 80.5404 17.9787V17.5872C80.5404 17.5872 81.0646 17.576 81.2265 17.8042C81.2987 17.9051 81.3355 18.1006 81.3355 18.1006L81.5852 18.1168L81.513 17.5639L79.6987 17.2275V17.4302L79.8915 17.4921L79.8848 18.5379L79.6826 18.5065V18.7244L81.4404 19.058L81.6377 18.519L81.4036 18.4289C81.3247 18.5495 81.2122 18.619 81.0844 18.6553Z" fill="#434448"/>
<path d="M89.9971 16.9795L89.9908 17.6033L90.1074 17.5943C90.1074 17.5943 90.2155 17.4113 90.3254 17.353C90.3926 17.3181 90.6303 17.353 90.6303 17.353V18.4136L90.4124 18.4109V18.5907L91.4384 18.7714L91.4424 18.6288L91.2586 18.5198L91.2545 17.4566C91.2545 17.4566 91.4514 17.4862 91.5052 17.553C91.5922 17.6634 91.7222 17.897 91.7222 17.897L91.8931 17.8997L91.8891 17.2912L89.9971 16.9795Z" fill="#434448"/>
<path d="M89.3299 18.1413C89.0868 18.2879 88.7371 18.1597 88.7371 18.1597L88.7438 17.8054C88.7438 17.8054 89.0711 17.744 89.0711 17.9001L89.2236 17.9077L89.2277 17.4458L89.0685 17.4449C89.0685 17.4449 88.9922 17.6498 88.7124 17.6036V17.1826C88.8738 17.1095 89.0487 17.0902 89.2232 17.1866C89.3626 17.2642 89.477 17.5095 89.477 17.5095L89.6541 17.5108L89.5465 16.9525L87.799 16.9485V17.1866L87.9985 17.2225V18.2305L87.8173 18.3032L87.8241 18.4714L89.5653 18.4839L89.7084 18.0328L89.472 18.0001C89.472 18.0001 89.3981 18.1014 89.3299 18.1413Z" fill="#434448"/>
<path d="M78.2949 17.1503L78.5038 17.2584L78.4976 18.2885C78.4438 18.3252 78.2873 18.2741 78.2873 18.2741L78.2635 18.4611C78.2635 18.4611 79.3568 18.6786 79.3568 18.6642V18.4611L79.1886 18.4113V17.3387L79.3868 17.3302V17.1692L78.2949 16.9629V17.1503Z" fill="#434448"/>
<path d="M92.4477 15.0969L92.3217 14.8435L89.6186 14.3574L89.7276 14.5193C90.6096 14.7529 91.5294 14.9888 92.4477 15.0969Z" fill="#434448"/>
<path d="M92.4834 15.6552L92.6462 15.4381C91.4202 15.2404 90.1955 15.0233 89.0063 14.7529L89.1153 14.8973C90.213 15.2229 91.3301 15.5108 92.4834 15.6552Z" fill="#434448"/>
<path d="M92.2484 14.5196C92.2313 14.4312 92.2681 14.2855 92.1605 14.251C91.4927 14.159 90.7717 14.0882 90.1591 13.998L90.2497 14.1066C90.8977 14.2859 91.5833 14.4487 92.2484 14.5196Z" fill="#434448"/>
<path d="M104.242 7.17175C102.953 7.51435 101.291 7.52377 100.011 7.18072L100.014 6.79642C101.186 6.30763 103.057 6.31839 104.242 6.73409V7.17175ZM99.6258 6.39149L99.5088 6.43229C99.8335 6.72018 99.5088 7.1879 99.8873 7.44126C101.221 7.85516 102.932 7.78297 104.265 7.42243C104.751 7.22467 104.287 6.63768 104.648 6.34978C103.078 5.77759 101.157 5.79642 99.6258 6.39149Z" fill="#434448"/>
<path d="M100.407 3.76098C100.167 3.89686 100.181 4.00045 100.167 4.09462C100.149 4.21749 100.323 4.4269 100.323 4.4269C100.323 4.4269 100.073 4.36278 99.9949 4.43229C99.8124 4.59283 99.8712 4.72466 99.8868 4.91839C99.8945 5.03005 99.9761 5.08072 100.05 5.15247C100.156 5.04978 100.207 5.01884 100.448 5.00852C100.519 5.24395 100.418 5.53049 100.125 5.62242C99.7922 5.7269 99.6581 5.56009 99.5451 5.33273C99.6344 5.26188 99.6671 5.24798 99.8644 5.21704L99.5622 4.57713L99.2205 4.86367L99.1061 4.67668L99.064 4.4695C99.4066 4.21569 100.01 3.86861 100.407 3.76098ZM103.774 3.76098C103.379 3.77219 103.337 4.0731 103.4 4.32332C103.311 4.26816 103.119 4.13677 102.969 4.25247C102.764 4.40807 102.819 4.70718 102.89 4.90493C103.004 4.79058 103.172 4.79821 103.317 4.85381C103.286 5.09238 103.183 5.33139 102.798 5.3426C102.351 5.35471 102.354 4.95381 102.371 4.86367C102.478 4.84618 102.547 4.87399 102.684 4.91614C102.61 4.67668 102.62 4.37489 102.694 4.14619H102.381L102.465 3.7417H101.634L101.707 4.15695C101.575 4.16009 101.483 4.15292 101.383 4.15695C101.51 4.40583 101.564 4.71031 101.455 4.90134C101.581 4.88475 101.674 4.90538 101.768 4.86367C101.805 5.00762 101.728 5.35157 101.395 5.38431C101.082 5.41256 100.905 5.23766 100.877 4.93722C101.01 4.87399 101.082 4.87399 101.216 4.9269C101.254 4.89462 101.337 4.79462 101.321 4.69821C101.292 4.5148 101.3 4.33632 101.112 4.2695C100.968 4.21883 100.781 4.3435 100.781 4.3435C100.781 4.3435 100.808 4.08924 100.759 3.97892C100.711 3.87265 100.572 3.77175 100.426 3.76098C101.383 3.43946 102.767 3.34529 103.774 3.76098ZM105.004 4.39596L104.898 4.75964C104.764 4.6556 104.716 4.613 104.624 4.52287L104.3 5.13453C104.399 5.15336 104.546 5.16009 104.616 5.26906C104.472 5.51794 104.242 5.66323 103.994 5.55964C103.682 5.43094 103.723 5.19551 103.774 4.93542C103.961 4.93542 104.035 4.97758 104.098 5.0713C104.192 4.97713 104.398 4.79013 104.305 4.5408C104.256 4.4121 104.007 4.37937 103.899 4.41614C104.036 4.1982 104.066 3.93857 103.807 3.78206C104.203 3.90897 104.644 4.14305 105.004 4.39596ZM98.4833 4.55157L98.4097 4.6296C98.8972 5.06188 99.1676 5.60269 99.4016 6.1435C101.023 5.54888 103.203 5.49506 104.788 6.10762C104.932 5.78296 105.021 5.45874 105.238 5.1713C105.363 4.95471 105.724 4.57668 105.724 4.57668L105.626 4.5C105.626 4.5 105.768 4.37713 105.779 4.26906C105.8 4.05157 105.851 3.83766 105.706 3.71076C105.526 3.60358 105.293 3.62062 105.129 3.67488C105.129 3.53094 105.094 3.387 104.986 3.27937C104.805 3.08162 104.517 3.24305 104.354 3.29731C104.354 3.13542 104.283 3.02646 104.157 2.91883C103.977 2.8287 103.743 2.90179 103.599 3.02645C103.527 2.91883 103.49 2.77489 103.364 2.6852C103.184 2.54126 102.914 2.66592 102.789 2.7574L102.676 2.40673L102.475 1.93319L102.403 1.46502L103.04 1.62108V0.739463L102.403 0.903587L102.527 0.000896368L101.56 0L101.685 0.904039L100.999 0.739907V1.62152L101.685 1.46547L101.607 1.9852L101.438 2.43722L101.347 2.79372C101.221 2.70314 101.094 2.63229 100.914 2.64977C100.698 2.64977 100.626 2.88385 100.554 3.02735C100.428 2.91973 100.266 2.84753 100.085 2.88386C99.8689 2.93901 99.7967 3.17265 99.7259 3.33453L99.5999 3.24439C99.4016 3.20762 99.1492 3.20762 99.0599 3.42422C98.951 3.49686 99.1308 3.82107 98.9142 3.73094C98.7173 3.62197 98.4635 3.71166 98.3559 3.89237C98.1833 4.12152 98.307 4.44708 98.4833 4.55157Z" fill="#434448"/>
<path d="M100.572 7.18751L101.166 7.27541L101.275 7.205C101.852 7.13415 102.421 7.12025 103.016 7.19199L103.088 7.28617L103.629 7.18123C102.729 6.89334 101.487 6.89065 100.572 7.18751Z" fill="#434448"/>
<path d="M83.9975 16.3753C84.6298 16.4305 85.3145 16.2865 85.9621 16.2502C86.4311 16.0336 86.4114 15.3488 86.3038 14.917C86.2513 14.917 86.1975 14.9533 86.1607 14.9704C86.0531 15.3134 86.2145 15.7995 85.8531 15.9973L84.0347 16.2139L83.9975 16.3753Z" fill="#434448"/>
<path d="M92.2482 16.1772C92.3218 16.1064 92.3021 15.997 92.3388 15.9257C91.2048 15.7454 90.0693 15.5826 88.9882 15.2952C88.9882 15.349 89.0249 15.4041 89.0787 15.4387C90.0882 15.7817 91.168 15.997 92.2482 16.1772Z" fill="#434448"/>
<path d="M116.221 18.2878C116.221 18.2878 116.653 18.3017 116.767 18.2878V18.117H116.626V17.3999L117.541 18.4107L117.795 18.4134V17.0883H117.92V16.8847L117.422 16.8703V17.0578H117.56L117.562 17.4622L116.911 16.8448L116.029 16.8259L116.05 17.0268H116.363L116.372 18.0869L116.237 18.1022L116.221 18.2878Z" fill="#434448"/>
<path d="M115.074 18.2494C114.864 18.2884 114.74 18.0709 114.709 17.727C114.676 17.3642 114.515 16.9996 114.911 16.97C115.207 16.9485 115.201 17.2862 115.24 17.5561C115.286 17.8835 115.302 18.2054 115.074 18.2494ZM115.02 16.8086C114.732 16.8445 114.443 16.879 114.246 17.114C114.047 17.2938 113.975 17.5646 114.047 17.8346C114.101 18.0691 114.281 18.2301 114.48 18.357C114.804 18.466 115.218 18.4467 115.506 18.3032C115.902 18.1054 116.011 17.6368 115.867 17.2579C115.687 16.9333 115.362 16.7893 115.02 16.8086Z" fill="#434448"/>
<path d="M119.452 15.9619C119.362 15.9619 119.272 15.9619 119.253 16.0503C119.324 16.3395 119.182 16.7888 119.452 17.0059C120.19 17.1319 120.911 17.3126 121.559 17.6718C121.613 17.7077 121.795 17.7633 121.776 17.618C121.2 17.1686 120.496 16.9153 119.776 16.7884C119.398 16.6807 119.686 16.1767 119.452 15.9619Z" fill="#434448"/>
<path d="M132.655 19.2929C132.927 19.2032 133.376 19.1494 133.611 18.8436C133.594 18.3028 133.394 17.7804 133.413 17.2221C134.926 17.1862 136.44 17.0422 137.934 16.9158C137.196 17.4566 136.313 17.7638 135.484 18.1409C136.151 18.5736 137.052 18.7714 137.845 19.0777C136.169 19.2759 134.403 19.4198 132.655 19.2929ZM130.89 19.1678C130.872 18.9512 130.71 18.6445 130.855 18.5194C131.648 18.4463 132.512 18.4292 133.214 18.6808C133.16 18.9149 132.853 18.8431 132.692 18.9508C132.115 19.0413 131.503 19.1319 130.89 19.1678ZM125.558 19.3297C125.558 18.7342 126.387 19.0243 126.568 18.4835C126.638 18.1947 126.601 17.8526 126.423 17.6185C125.882 17.0422 125.089 17.5467 124.442 17.5647L124.117 17.3476C126.891 17.0234 129.358 15.8355 132.314 16.0508C132.584 16.123 132.889 16.1961 133.052 16.4835C133.106 17.0781 133.071 17.7265 133.232 18.3028C130.513 17.7983 128.062 18.8252 125.558 19.3297ZM125.216 17.6902C125.377 17.6001 125.594 17.6718 125.739 17.7633C125.992 17.979 126.117 18.5907 125.72 18.7535C125.72 18.7535 125.235 17.6956 125.216 17.6902ZM124.243 16.6992H124.351V16.718H124.243V16.6992ZM124.73 19.7073C124.262 19.9602 123.757 19.6902 123.271 19.6723C122.622 19.5822 121.919 19.4732 121.325 19.7624C120.858 19.5822 120.407 19.3297 119.974 19.0239C120.19 18.6091 120.711 18.5902 121.162 18.5539C121.795 18.753 122.316 19.2754 123.108 19.0772C123.288 19.0943 123.468 19.0404 123.54 18.8606C123.325 18.5189 122.893 18.5364 122.567 18.4292C121.325 18.1588 120.316 17.3472 118.946 17.4023C118.532 16.9328 118.839 16.2131 118.785 15.618C118.875 15.492 119.163 15.3481 119.019 15.1674C118.965 15.0597 118.819 15.097 118.748 15.1324L118.154 15.5109C118.173 15.6911 118.208 15.8889 118.19 16.0503C117.793 15.979 117.325 15.8346 116.856 15.8346C116.731 15.457 117.271 15.762 117.236 15.4203L117.344 14.0503C117.325 13.7817 116.893 13.8526 117.11 13.5476C117.236 13.5647 117.414 13.6723 117.523 13.5476L118.297 12.2848C118.334 12.1409 118.227 12.0149 118.136 11.9606L118.316 11.7629C118.514 12.1046 118.893 11.7799 119.181 11.7799C119.469 11.5822 120.172 11.8171 120.099 11.2409V11.1683L120.425 11.1144C120.406 11.3678 120.387 11.7261 120.19 11.8709C119.723 12.0391 118.999 11.9113 118.557 12.1315L118.173 12.8086C119.163 12.5557 120.315 12.5732 121.289 12.2503C122.296 12.6458 123.342 12.9701 124.297 13.5476C123.937 14.0333 124.135 14.6279 124.207 15.2032C124.171 15.8526 123.81 16.3741 123.342 16.8248C122.928 16.4292 123.63 16.1404 123.666 15.7445C123.757 15.5104 123.846 15.1135 123.612 14.9158C123.253 14.9333 123.521 15.3839 123.358 15.5638C123.234 15.8709 123 16.105 122.928 16.4109C122.712 16.357 122.495 16.1221 122.37 15.9427C122.262 15.7082 122.676 15.4382 122.351 15.2763C122.008 15.5472 121.703 15.9427 121.29 16.0866C121.236 16.1404 121.199 16.2126 121.236 16.2665C121.487 16.5548 121.794 16.1404 122.045 16.4647C122.982 17.1857 123.864 18.0508 124.91 18.5189C125.234 18.9149 124.893 19.3481 124.73 19.7073ZM118.858 18.1593C118.858 17.979 119.056 17.9422 119.182 17.9073C119.776 17.8158 120.19 18.1409 120.676 18.3028C120.316 18.3759 119.974 18.5194 119.668 18.7714C119.344 18.6996 119.036 18.466 118.858 18.1593ZM118.388 19.7265C118.514 19.6364 118.731 19.5633 118.804 19.384L118.785 18.9512C118.965 19.1144 119.163 19.2387 119.433 19.2387C119.433 19.4373 119.668 19.5992 119.795 19.6723L118.388 19.7265ZM116.192 19.5633L116.119 18.988C116.91 18.9342 117.704 19.0239 118.388 19.3297L118.37 19.4019C117.704 19.6185 116.93 19.6185 116.192 19.5633ZM110.48 19.0777C110.696 18.627 111.112 18.1763 111.489 17.7633C111.535 17.7952 111.636 17.9135 111.636 17.9135V18.6162L111.5 18.6324L111.489 18.8073L112.026 18.8032L112.029 18.644L111.887 18.6162L111.885 18.1947L112.426 18.7714L112.947 17.992L113.024 18.4911C113.024 18.4911 112.93 18.5261 112.858 18.5364C112.84 18.6266 112.868 18.7414 112.868 18.7414L113.852 18.5692L113.819 18.3037C113.819 18.3037 113.691 18.3387 113.65 18.3387L113.508 17.3835L113.681 17.3382L113.65 17.0781L113.02 17.1862L112.624 17.9961L111.965 17.2907L111.795 17.2934L111.904 17.0225C113.867 16.8082 115.939 16.1221 117.973 16.6987C118.147 16.7736 118.252 16.8839 118.311 17.0158C118.508 17.4602 118.208 18.1597 118.388 18.6436C118.406 18.7337 118.442 18.8068 118.423 18.9144C115.741 17.9611 113.199 19.5458 110.48 19.0777ZM110.066 18.5907C109.976 18.2853 109.687 17.8346 109.308 17.6543C108.967 17.4929 108.498 17.5467 108.193 17.6902C108.786 16.8615 109.237 15.2763 110.624 15.6553C110.949 15.7624 111.236 16.1059 111.273 16.4297C111.471 17.4023 110.264 17.7983 110.066 18.5907ZM109.542 19.4925C109.344 19.7265 109.056 19.8167 108.749 19.7624C108.516 19.6902 108.388 19.4925 108.3 19.2925C108.263 19.114 108.318 18.9337 108.481 18.8606C108.588 18.8431 108.714 18.8786 108.733 18.9875C108.768 19.1135 108.552 19.2575 108.749 19.3292C108.876 19.3476 108.985 19.2023 109.002 19.0947C109.04 18.8606 108.913 18.644 108.696 18.5539C108.516 18.5001 108.301 18.5364 108.155 18.6808C107.977 18.8073 107.993 19.0239 107.977 19.2028C107.706 18.9687 107.381 18.8611 107.058 18.8611C107.652 18.3387 108.247 17.7082 109.093 17.9073C109.381 18.0324 109.706 18.3387 109.722 18.6633C109.742 18.9691 109.705 19.2584 109.542 19.4925ZM109.065 10.5503C109.049 10.2795 109.127 9.9409 109.398 9.7279C109.637 9.5418 109.886 9.44045 110.157 9.56646L111.921 11.3857C111.398 11.2597 110.895 11.4207 110.535 11.8718C109.903 12.6656 110.661 13.9436 109.977 14.736L109.345 15.3481C109.832 13.7987 109.669 11.9225 109.065 10.5503ZM108.84 9.49381C108.319 9.3131 108.152 8.90682 107.736 8.38709C108.15 8.33193 108.57 8.03373 108.75 7.61938C108.75 7.54763 108.806 7.51131 108.806 7.44045C109.273 7.90861 110.245 8.4844 109.615 9.24045C109.398 9.42117 109.147 9.60144 108.84 9.49381ZM116.334 9.60144C116.678 9.3131 116.876 8.93552 116.785 8.50234C116.822 8.14269 116.425 7.90861 116.227 7.71086C114.966 7.20458 113.776 8.16018 112.48 7.94538C112.21 7.81848 111.993 7.53059 111.993 7.22386V7.17005C112.157 7.44045 112.426 7.63821 112.75 7.63821C114.154 7.54807 116.137 6.39471 117.164 7.9261C117.36 8.2678 117.397 8.77229 117.271 9.16915C117.181 9.54763 116.839 9.89022 116.515 10.088C114.822 10.9171 113.199 8.95301 111.614 10.1961L111.398 10.0162C112.804 8.4844 114.678 10.4301 116.334 9.60144ZM116.137 9.1696C116.154 9.33238 115.956 9.49427 115.813 9.51175C115.038 9.62028 114.299 9.38619 113.561 9.22296C114.334 9.06153 115.108 8.73776 115.92 8.89919C116.046 8.93552 116.101 9.06198 116.137 9.1696ZM111.182 8.26825V8.21444C112.661 9.35032 114.28 8.03462 115.867 8.17946C116.227 8.28754 116.532 8.64808 116.406 9.06198C116.351 8.84538 116.119 8.62879 115.885 8.57498C114.299 8.37722 112.336 9.97946 111.182 8.26825ZM112.317 11.8176C112.498 11.9611 112.661 12.1781 112.732 12.4122C112.767 12.7001 112.661 12.9346 112.462 13.1144C112.317 13.2943 112.066 13.3122 111.832 13.2584C111.687 13.2234 111.561 13.0418 111.507 12.8979C111.489 12.7539 111.561 12.6104 111.687 12.5736C112.029 12.4839 111.741 13.1144 112.101 12.8629C112.173 12.736 112.136 12.5391 112.047 12.4122C111.921 12.2853 111.687 12.2144 111.507 12.3046C110.931 12.7001 111.453 13.4023 111.327 13.9974C111.29 14.4306 111.093 14.7898 110.749 15.0969C110.553 15.0234 110.281 15.0234 110.084 15.0969C110.677 14.4481 110.624 13.4561 110.588 12.592C110.624 12.2853 110.822 12.0153 111.056 11.8176C111.453 11.6198 111.921 11.6198 112.317 11.8176ZM116.515 14.231L116.876 14.2503L116.802 15.1674L116.443 15.1324L116.515 14.231ZM117.019 12.8091C117.199 12.5925 117.271 12.3221 117.451 12.1055L117.741 12.2853C117.614 12.5736 117.469 12.8265 117.29 13.0781C117.199 13.0064 116.892 12.9705 117.019 12.8091ZM119.505 10.8808C119.614 10.9176 119.577 11.0965 119.614 11.2055C119.344 11.349 119.036 11.3683 118.732 11.4396C118.677 11.3315 118.659 11.1875 118.677 11.0786L119.505 10.8808ZM122.19 11.4396C122.334 11.5122 122.495 11.4759 122.532 11.3131C122.459 10.7718 122.946 10.34 123.054 9.81758C123.451 9.81758 123.81 9.54763 123.991 9.18843C124.063 8.95301 124.136 8.62834 124.01 8.39471C123.956 8.3409 123.863 8.24987 123.81 8.35749C123.757 8.66422 123.631 9.06153 123.271 9.15166C122.712 9.34942 122.082 9.15166 121.523 9.06152C121 9.18843 120.425 9.16915 120.046 9.61983C119.902 9.74673 119.649 9.69112 119.505 9.5835C119.416 9.5113 119.307 9.36691 119.451 9.29606C119.632 9.16915 119.956 9.3131 120.099 9.07947C120.136 8.88171 119.991 8.71893 119.811 8.64763C119.451 8.43059 118.911 9.25929 118.928 8.50234L119 7.9992C119.163 8.10637 119.416 8.17902 119.595 8.10637C119.704 8.0705 119.811 7.94538 119.758 7.83642C119.595 7.53103 119.379 7.8548 119.163 7.83642C119.199 7.60189 119.505 7.58485 119.685 7.49471C120.387 7.38664 121.054 7.15122 121.558 6.57543C122.027 6.43148 122.567 6.80906 123 6.48529C123.162 6.10727 123.468 5.74628 123.863 5.54852C123.919 5.99919 124.135 6.57543 123.757 6.95301C123.81 7.06108 123.955 7.07991 124.08 7.02565C124.207 6.95301 124.207 6.80906 124.261 6.68215C125.523 7.44045 125.972 8.82745 125.738 10.2494C125.558 10.9171 125.377 11.5826 125.018 12.1781C125 12.1781 124.892 11.9804 124.765 11.9974C124.818 11.8714 124.837 11.6194 124.693 11.5118C124.421 11.5118 124.333 11.9068 124.025 11.7804C123.936 11.8714 123.883 11.9611 123.883 12.07C123.936 12.1409 124.025 12.105 124.079 12.1947C124.098 12.3575 123.955 12.4476 123.829 12.4835C123.63 12.5019 123.432 12.3925 123.378 12.1947C123.358 12.1046 123.324 11.9431 123.397 11.8893C123.521 11.9261 123.738 12.1781 123.775 11.8893C123.775 11.7091 124.116 11.5117 123.829 11.3848L123.612 11.331C123.649 11.2225 123.792 11.1687 123.775 11.0248C123.575 10.9167 123.397 10.8077 123.162 10.7902C123.071 10.8629 123.107 10.9709 123.107 11.0777C122.981 11.1315 122.927 10.9342 122.8 10.9705C122.711 11.1508 122.639 11.3674 122.585 11.5651L122.909 11.6727C122.783 11.8526 122.566 11.9795 122.369 11.9257C122.261 11.8526 122.099 11.7987 122.062 11.6548C122.028 11.566 122.1 11.457 122.19 11.4396ZM123.054 4.827C123.325 4.48574 123.721 4.19785 124.08 4.05391C124.08 4.71938 123.54 5.20547 123.017 5.54852C122.839 5.35076 122.982 5.04404 123.054 4.827ZM125.594 4.41355C125.594 5.0983 124.856 5.47678 124.657 6.08844C124.514 6.05346 124.495 5.87364 124.442 5.76467C124.351 5.04404 125.089 4.70234 125.594 4.41355ZM126.856 5.27812C126.71 6.08798 125.775 6.14359 125.377 6.7557C125.216 6.7557 125.234 6.57588 125.18 6.48529C125.323 5.67543 126.243 5.54852 126.856 5.27812ZM128.008 6.64628C127.433 7.17005 126.584 7.2409 125.865 7.40368C125.757 7.34987 125.81 7.18709 125.828 7.09695C126.37 6.55794 127.234 6.70144 128.008 6.64628ZM128.457 8.03417C127.898 8.43058 126.998 8.3409 126.297 8.26825C126.152 8.21444 126.189 8.05256 126.297 7.96243C126.963 7.53059 127.774 7.9261 128.457 8.03417ZM128.549 9.34987C127.882 9.52969 126.891 9.61982 126.405 9.07901C126.386 8.95301 126.514 8.89875 126.601 8.84494C127.306 8.88171 127.937 9.07946 128.549 9.34987ZM128.26 10.5934C127.557 10.7911 126.801 10.6109 126.37 10.0346C126.352 9.92566 126.44 9.8548 126.531 9.83552C127.198 9.90817 127.685 10.3759 128.26 10.5934ZM126.206 11.1324C126.171 11.0786 126.206 10.9884 126.189 10.9176C126.277 10.827 126.459 10.8449 126.568 10.8987L127.72 11.7638C127.108 11.8176 126.601 11.5831 126.206 11.1324ZM125.865 12.1055C125.828 11.9808 125.757 11.818 125.847 11.6736C125.936 11.6557 125.991 11.6557 126.082 11.6736L126.964 12.8091C126.531 12.7539 126.136 12.466 125.865 12.1055ZM125.377 13.0064C125.323 12.8804 125.36 12.7001 125.486 12.6826C125.9 12.8086 126.045 13.3315 126.387 13.5831C125.991 13.6189 125.558 13.3674 125.377 13.0064ZM124.657 12.8436C124.584 12.8086 124.495 12.8086 124.442 12.7176C124.422 12.61 124.477 12.5019 124.568 12.4656C124.657 12.4481 124.766 12.4656 124.766 12.5736C124.802 12.683 124.712 12.7727 124.657 12.8436ZM127.052 15.6723C127.34 15.6723 127.631 15.6723 127.828 15.8714C126.729 16.1956 125.594 16.4651 124.422 16.6454C125.288 16.4472 126.152 15.962 127.052 15.6723ZM137.052 18.1225C138.169 17.5104 139.286 16.8252 140.295 15.9965C138.042 16.3207 135.862 16.5552 133.485 16.5373C133.304 16.4835 133.448 16.1956 133.34 16.0691C132.711 15.1508 131.288 15.4207 130.241 15.4575C129.52 15.3844 128.657 16.2131 128.152 15.3306C127.828 15.0431 127.36 15.097 126.928 15.0597C126.152 15.2405 125.451 15.7082 124.675 15.8346C124.91 15.3122 124.712 14.6987 124.675 14.1409C124.693 14.0153 124.712 13.87 124.838 13.8162C125.126 14.3387 125.666 14.6086 126.206 14.5736C126.224 14.375 125.919 14.2306 125.882 14.0328C126.37 14.2494 127.036 14.0499 127.503 14.3028C127.486 13.9059 126.963 13.5642 126.747 13.2938C127.18 13.2938 127.54 13.3118 127.898 13.3665C127.774 12.9162 127.414 12.4651 127.108 12.1777L127.937 12.1947C128.189 12.1588 128.495 12.1947 128.729 12.1588C128.566 11.7261 128.115 11.3485 127.719 11.1687L128.512 11.0611C128.747 10.9535 129.108 11.0781 129.323 10.9535C128.982 10.4665 128.457 10.1956 127.972 9.9427L129.161 9.61983C129.322 9.61983 129.558 9.65525 129.647 9.5835C129.305 9.11534 128.783 8.89919 128.295 8.71848V8.68216C128.566 8.62834 128.764 8.39471 129 8.24987C129.161 8.14269 129.412 8.16019 129.519 7.9992C129.089 7.60189 128.495 7.53058 127.936 7.38664V7.33193C128.295 7.11624 128.584 6.77319 128.944 6.55794V6.48529C128.386 6.12476 127.63 6.12476 126.944 6.14314C127.125 5.927 127.232 5.69247 127.286 5.43955C127.377 5.20547 127.575 5.00772 127.665 4.80996C127.07 4.70234 126.476 4.86377 125.953 5.07991L126.259 3.85435L126.205 3.81893C125.611 3.83642 125.053 4.1418 124.566 4.46646C124.529 4.05346 124.692 3.70951 124.764 3.38574C124.278 3.42162 123.862 3.60234 123.449 3.81893C122.908 4.10727 122.333 4.59247 122.403 5.26018C122.368 5.29516 122.261 5.27722 122.279 5.36826C122.476 5.5122 122.531 5.78216 122.584 5.98037C122.422 5.87229 122.294 5.69202 122.26 5.51175C122.133 5.29516 121.882 5.0974 121.61 5.22341C121.719 5.35032 121.863 5.58305 121.863 5.78171C121.54 5.61938 121.557 5.26018 121.305 5.04359C121.179 4.97095 120.981 4.91713 120.855 5.00727L121.088 5.40413L121.051 5.45794C120.709 5.29516 120.764 4.91713 120.458 4.73686C120.35 4.64673 120.097 4.64673 120.007 4.73686C120.097 4.89964 120.278 5.06108 120.26 5.24135C119.846 5.07946 119.72 4.1974 119.143 4.50278C119.269 4.62879 119.431 4.7557 119.431 4.91714C119.07 4.82655 119.053 4.43104 118.783 4.25122C118.639 4.1974 118.458 4.12431 118.349 4.21444C118.458 4.32207 118.549 4.44897 118.529 4.57543C118.278 4.53866 118.295 4.26781 118.098 4.1418C117.99 3.96287 117.774 3.87229 117.558 3.94404C117.612 4.05301 117.739 4.17767 117.72 4.28574C117.486 4.17812 117.505 3.81893 117.197 3.76333C117.09 3.78216 116.981 3.89023 117.017 4.03417C117.09 4.16108 117.197 4.2678 117.323 4.32206C117.863 4.23327 118.116 4.84583 118.675 4.71893C118.909 4.97095 119.197 5.0974 119.556 5.07947C119.792 5.27723 120.061 5.42162 120.404 5.38485C120.656 5.81848 121.233 5.42162 121.484 5.88933C121.683 6.07005 122.133 5.85301 122.188 6.15973H122.133C121.467 5.81803 120.981 6.37677 120.476 6.68126C119.862 6.95211 119.07 6.91579 118.602 7.45615C118.512 8.01489 118.241 8.68081 118.567 9.22162C118.639 9.27543 118.802 9.29471 118.729 9.43866L119.341 10.105C119.539 10.2674 119.846 10.2126 120.097 10.1947C120.728 9.72655 121.647 9.47498 122.402 9.87049C122.349 10.1234 122.278 10.4288 121.972 10.5194C121.863 10.592 121.916 10.8436 121.701 10.753C121.501 10.753 121.431 10.97 121.431 11.131L121.628 11.2041C121.701 11.2938 121.701 11.3844 121.628 11.4557C121.521 11.5817 121.34 11.5817 121.197 11.5458C121.035 11.4745 120.888 11.2938 120.962 11.0952C121.051 11.0772 121.106 11.2221 121.197 11.1678C121.178 10.9526 121.304 10.8073 121.304 10.6274L121.051 10.5916C121.051 10.4651 121.214 10.3575 121.178 10.231C120.997 10.1588 120.745 10.1772 120.547 10.2126L120.476 10.6274L119.972 10.6813C119.88 10.6091 119.918 10.4476 119.774 10.4113L118.567 10.6629C118.349 10.6813 118.063 10.8431 118.206 11.1135C117.971 11.3113 117.702 11.979 117.323 11.5647C117.017 11.9059 116.8 12.3745 116.513 12.7521C116.369 12.9153 116.458 13.1857 116.657 13.2396C116.657 13.4373 116.567 13.6171 116.477 13.7804C116.332 13.7615 116.189 13.7804 116.117 13.905L116.008 15.4014C116.062 15.5624 116.244 15.5266 116.349 15.5992C116.332 15.67 116.386 15.779 116.315 15.8328C114.748 15.797 113.378 16.2835 111.883 16.3185C111.755 15.9768 111.612 15.5992 111.288 15.3463C111.721 14.9319 111.848 14.3736 111.937 13.8149C112.441 13.8508 112.855 13.6902 113.18 13.2741C114.206 13.3104 115.34 13.4194 116.349 13.1853L116.295 13.1315C116.117 12.9683 116.332 12.8248 116.349 12.6808C115.359 12.7709 114.315 12.7709 113.323 12.6808C113.45 11.744 112.531 11.2396 112.009 10.627C112.117 10.5189 112.243 10.4472 112.368 10.3741C113.648 10.2665 114.694 11.0055 116.008 10.8427C116.783 10.7346 117.666 10.2118 117.862 9.38395C118.025 8.71624 118.007 7.90637 117.539 7.3844C116.694 6.41131 115.215 6.5001 114.081 6.78933C113.54 6.86108 112.747 7.27543 112.333 6.68036C112.153 6.42969 112.243 6.03194 112.314 5.78037C112.063 5.74449 111.919 5.97902 111.755 6.10503C111.36 6.62745 111.468 7.40189 111.668 7.94314C111.271 7.81624 111.054 7.40189 110.928 7.05884H110.893C110.676 7.45525 110.802 7.99696 110.947 8.39247C111.145 8.84314 111.668 9.13103 112.027 9.27453C111.704 9.34763 111.433 9.58126 111.181 9.72521C111.038 9.63507 110.948 9.41848 110.802 9.27453C110.676 9.07677 110.243 9.14987 110.352 8.89696C110.623 8.06781 109.83 7.58215 109.307 7.07767C109.211 6.37812 108.791 5.46691 107.921 5.23955C107.239 5.06198 106.616 5.1427 106.173 5.69023C105.879 6.05346 105.794 6.41175 105.849 6.84314C105.489 6.71713 105.164 6.44628 104.786 6.41131C104.714 6.55525 104.707 6.73866 104.762 6.91848C105.312 7.10548 105.81 7.41803 106.217 7.70817H107.174C107.376 7.67947 107.545 7.62834 107.687 7.4548C107.852 7.25077 107.907 7.02745 107.794 6.78888C107.691 6.5687 107.588 6.44583 107.271 6.44583C106.997 6.44583 106.948 6.64762 106.948 6.84269C106.948 7.0122 107.03 7.04045 107.129 7.02296C107.227 7.00413 107.174 6.8678 107.236 6.78843C107.277 6.73641 107.32 6.66871 107.379 6.6983C107.487 6.75211 107.532 6.83327 107.561 6.94987C107.61 7.16825 107.456 7.33866 107.253 7.43731C107.013 7.55301 106.782 7.45839 106.587 7.27453C106.344 7.04583 106.361 6.74673 106.461 6.42834C106.558 6.12027 106.723 5.94494 107.019 5.81579C107.417 5.64135 107.766 5.73911 108.119 5.99561C108.603 6.35122 108.794 6.95659 108.514 7.49112C108.297 7.90368 107.92 8.13955 107.486 8.10278V8.91265C108.783 10.4633 109.115 11.9391 109.115 13.27C109.115 16.3458 107.088 19.5292 103.2 20.1517L102.7 20.6925C104.089 20.6387 105.341 20.1315 106.46 19.4162C107.649 18.9476 108.081 20.6965 109.27 20.3526C109.612 20.2813 109.919 19.9566 110.135 19.6499C110.801 19.7588 111.521 19.8306 112.243 19.7588C113.484 19.7037 114.621 19.2718 115.827 19.3082C115.845 19.5593 115.79 19.8665 115.971 20.0463C117.449 20.4059 119.197 20.4422 120.764 20.262C121.142 20.3709 121.61 20.4979 121.971 20.244C122.797 20.1001 123.556 20.3884 124.367 20.4055C124.763 20.4979 125.033 20.2808 125.231 20.0458C126.942 19.614 128.636 19.1274 130.401 18.8745C130.636 18.8929 130.491 19.2714 130.563 19.4512C130.761 19.7754 131.175 19.7391 131.501 19.8297C134.653 20.1176 137.93 19.8122 140.958 19.3252C139.646 18.9512 138.295 18.6445 137.052 18.1225Z" fill="#434448"/>
<path d="M111.904 15.06L114.173 14.5918C114.372 14.4842 114.732 14.555 114.804 14.3035C113.904 14.4649 113.021 14.664 112.101 14.7528C111.94 14.7721 111.975 14.9528 111.904 15.06Z" fill="#434448"/>
<path d="M111.904 15.6188C112.948 15.421 113.976 15.2412 114.966 14.9533C115.092 14.8982 115.289 14.8982 115.272 14.7C114.138 15.0605 112.876 15.1336 111.724 15.404L111.904 15.6188Z" fill="#434448"/>
<path d="M115.255 15.4212L115.327 15.2952C114.263 15.5292 113.11 15.6916 112.029 15.8898L112.119 16.1064C113.182 15.9068 114.246 15.7454 115.255 15.4212Z" fill="#434448"/>
<path d="M112.137 14.2504L112.12 14.4652C112.787 14.3756 113.433 14.2312 114.066 14.0504L114.138 13.9258L112.137 14.2504Z" fill="#434448"/>
<path d="M131.755 16.5105L131.987 16.5428V17.6343L131.827 17.6544L131.834 17.8047L132.765 17.9074L132.768 17.7432L132.565 17.68L132.535 16.5885C132.535 16.5885 132.656 16.6329 132.721 16.6822C132.794 16.7392 132.778 16.8643 132.778 16.8643L132.924 16.9168C132.924 16.9168 132.926 16.5477 132.924 16.5423C132.528 16.3796 132.02 16.306 131.552 16.3226L131.539 16.8437L131.678 16.8222L131.755 16.5105Z" fill="#434448"/>
<path d="M131.504 17.5879L131.359 17.5829L131.239 16.543L131.431 16.5206L131.376 16.321L130.404 16.43L130.422 16.6107L130.566 16.5914L130.711 17.6547L130.566 17.7085L130.585 17.8883L131.52 17.7744L131.504 17.5879Z" fill="#434448"/>
<path d="M127.433 17.7266C127.451 17.7481 127.313 17.2575 127.313 17.2575C127.313 17.2575 127.597 17.0961 127.711 17.4001C127.793 17.6185 127.561 17.7042 127.433 17.7266ZM128.229 17.2132C128.166 16.9073 127.753 16.9118 127.355 16.9907C127.372 16.9948 126.585 17.2221 126.585 17.2221L126.623 17.3697L126.732 17.3387L126.999 18.3764L126.906 18.5078L126.963 18.645L127.72 18.4665L127.636 18.2584L127.574 18.2741L127.495 17.9002C127.495 17.9002 127.703 17.8827 127.762 17.9454C127.882 18.0732 128.026 18.4114 128.026 18.4114L128.603 18.2432L128.138 17.7114C128.138 17.7114 128.326 17.6862 128.229 17.2132Z" fill="#434448"/>
<path d="M129.612 17.9421C129.381 18.0147 129.322 17.8214 129.213 17.4618C129.112 17.1322 128.982 16.8057 129.244 16.7286C129.514 16.6506 129.627 17.0223 129.702 17.2936C129.804 17.6649 129.852 17.8676 129.612 17.9421ZM129.846 16.5914C129.52 16.5012 129.143 16.5376 128.874 16.7174C128.55 16.8788 128.513 17.2219 128.55 17.5645C128.585 17.7806 128.783 17.9793 128.982 18.086C129.269 18.195 129.648 18.1407 129.917 18.0147C130.171 17.8712 130.297 17.6004 130.297 17.2936C130.278 17.0062 130.134 16.7178 129.846 16.5914Z" fill="#434448"/>
<path d="M105.544 17.4741L105.4 17.4374C105.47 17.3472 105.67 17.3293 105.617 17.1687C105.274 16.8791 104.842 17.006 104.409 16.9696L104.337 16.9158C104.517 16.7176 104.842 16.8257 105.076 16.8257C105.184 16.8445 105.31 16.7356 105.239 16.6279C104.932 16.6997 104.517 16.6647 104.213 16.8257C104.14 16.8983 104.175 16.9885 104.23 17.0602C104.608 17.114 105.13 16.9333 105.417 17.2226L105.329 17.2584C104.859 17.0607 104.321 17.3844 103.869 17.1504L103.942 17.0069C103.762 16.8625 103.491 16.8261 103.257 16.845C103.167 16.953 103.328 17.1145 103.221 17.2405C103.004 17.2405 103.113 17.0239 103.058 16.9163L102.807 16.8988C102.662 16.9701 102.79 17.0965 102.753 17.1867C102.969 17.2764 103.058 17.5284 103.221 17.6728C103.15 17.7643 103.004 17.9427 102.915 17.7643C102.807 17.7992 102.663 17.8351 102.627 17.9427C102.842 18.3764 103.239 17.962 103.509 17.9078L103.582 17.9427C103.743 17.7087 104.032 17.7086 104.23 17.6553C104.374 17.8351 104.067 17.8167 103.997 17.9261C103.906 18.0158 103.762 17.8356 103.709 17.997C103.709 18.0696 103.636 18.1239 103.709 18.1956C103.997 18.3037 104.213 17.98 104.518 17.997C104.735 17.98 104.518 17.7813 104.679 17.6916C104.805 17.5835 104.987 17.5113 105.095 17.6916L104.969 17.8172C104.879 17.7997 104.86 17.6557 104.753 17.7091C104.699 17.7454 104.699 17.7992 104.699 17.8356C104.679 18.0333 104.896 17.997 104.987 18.0521C105.203 17.888 105.417 17.7082 105.544 17.4741Z" fill="#434448"/>
<path d="M102.86 9.07988H106.102V12.6826H102.86V9.07988ZM102.589 12.9709H106.446V8.79199H102.589V12.9709Z" fill="#434448"/>
<path d="M103.291 16.5916C103.437 16.5736 103.581 16.4117 103.689 16.4655C103.761 16.4839 103.742 16.3942 103.795 16.375C104.14 16.3037 104.446 16.0696 104.841 16.1602C104.824 16.196 104.841 16.2862 104.77 16.2862C104.607 16.4476 104.212 16.2862 104.194 16.5916C104.266 16.6108 104.32 16.7176 104.428 16.6812C104.571 16.5014 104.805 16.5557 105.021 16.5377C105.4 16.6458 105.094 16.231 105.4 16.196C105.598 16.231 105.887 16.1059 106.03 16.3037C106.03 16.3575 106.013 16.3938 105.975 16.4117C105.921 16.4655 105.85 16.4301 105.814 16.375C105.742 16.3212 105.652 16.3579 105.633 16.4301C105.652 16.6458 105.851 16.6108 105.975 16.6812C106.192 16.5557 106.3 16.3037 106.355 16.0691C106.21 16.0333 106.068 16.0691 105.958 15.962C106.067 15.962 106.228 15.8714 106.191 15.7274C105.832 15.3126 105.147 15.6014 104.624 15.5472L104.554 15.492C104.788 15.2575 105.292 15.5108 105.417 15.1866C105.4 15.1328 105.328 15.1328 105.292 15.1328C105.021 15.3485 104.535 15.1508 104.373 15.4925C104.752 15.9252 105.346 15.475 105.85 15.6185C105.921 15.6014 106.049 15.7086 105.995 15.7624C105.383 15.7086 104.644 15.8893 104.012 15.7086C104.049 15.6364 104.085 15.6014 104.102 15.5288C103.886 15.3669 103.561 15.3844 103.327 15.3485C103.327 15.5113 103.381 15.6364 103.291 15.7624C103.238 15.8351 103.166 15.7454 103.13 15.7086C103.057 15.6185 103.13 15.5647 103.149 15.4925C103.112 15.3131 102.949 15.4575 102.841 15.3844C102.734 15.4207 102.789 15.5642 102.734 15.6552C103.04 15.7081 102.986 16.1225 103.256 16.1956C103.184 16.2669 103.13 16.3395 103.04 16.3745C102.969 16.3395 102.986 16.2494 102.914 16.2669C102.806 16.3395 102.608 16.3207 102.626 16.5014C102.769 16.8987 103.023 16.5019 103.291 16.5916Z" fill="#434448"/>
<path d="M102.752 15.2044C102.842 15.2582 102.933 15.1873 103.023 15.1685C103.274 15.2044 103.472 14.9174 103.689 14.99C104.066 14.7542 104.5 14.6295 104.968 14.6654L104.879 14.8443C104.679 14.9169 104.337 14.8093 104.266 15.0241C104.266 15.2044 104.463 15.1331 104.571 15.1873C104.771 14.9533 105.148 15.1873 105.347 14.9896C105.184 14.8264 105.471 14.7905 105.527 14.6824C105.742 14.8089 106.085 14.5196 106.192 14.8438C106.103 15.0434 105.959 14.6994 105.833 14.8802C105.797 15.0972 106.014 15.1143 106.157 15.1869C106.391 15.0779 106.517 14.8264 106.517 14.5555C106.391 14.5196 106.247 14.5555 106.157 14.4483C106.229 14.3394 106.446 14.3945 106.409 14.2138C105.959 13.7631 105.238 14.1779 104.661 13.9977C104.661 13.9609 104.661 13.9438 104.678 13.9259C104.932 13.7268 105.417 14.0878 105.509 13.6923C105.47 13.6192 105.4 13.6555 105.346 13.6555C105.111 13.89 104.57 13.6004 104.481 14.016C104.516 14.1237 104.644 14.1416 104.733 14.1586C105.219 14.195 105.814 13.9259 106.21 14.2313C105.49 14.2851 104.678 14.3757 103.976 14.195L104.011 14.0506C103.815 13.89 103.544 13.8169 103.29 13.89C103.273 13.9797 103.345 14.0506 103.327 14.1416C103.29 14.195 103.31 14.3214 103.184 14.3039C103.022 14.2506 103.094 14.1062 103.111 13.9797C103.076 13.8528 102.932 13.9438 102.859 13.89C102.698 13.9071 102.751 14.0878 102.698 14.195C102.913 14.3219 103.022 14.5743 103.22 14.7533C103.022 15.043 102.788 14.6286 102.625 14.9699C102.589 15.0784 102.734 15.1147 102.752 15.2044Z" fill="#434448"/>
<path d="M102.32 19.8517V13.5835H106.787C106.874 15.6495 106.806 17.4212 104.986 18.249C104.086 18.7001 103.023 19.0418 102.32 19.8517ZM102.32 8.53915H106.715V13.2418H102.32C102.32 11.6741 102.32 8.53915 102.32 8.53915ZM101.978 13.2418H97.6171V8.53915H101.978C101.978 8.53915 101.994 11.6916 101.978 13.2418ZM101.978 19.8347C100.969 18.7351 99.7014 18.7194 98.5014 17.6548C97.483 16.7548 97.6171 14.9073 97.6171 13.5835H101.978V19.8347ZM97.0588 16.1414C96.0691 14.575 96.0866 12.106 97.0588 10.5212V16.1414ZM107.347 10.4844C107.836 11.3122 108.078 12.3226 108.076 13.3369C108.073 14.3405 107.829 15.3477 107.347 16.1858V10.4844ZM105.698 18.5145C106.426 18.0566 107.516 16.94 108.028 15.5826C108.597 14.0647 108.544 12.8427 108.131 11.362C107.88 10.467 107.292 9.71898 107.292 9.71898V7.92659H105.296L104.617 7.55664L104.221 7.68041L104.659 7.92659H99.726L100.212 7.71135L99.7736 7.58758C99.7736 7.58758 99.2651 7.85754 99.022 7.92615H97.005V9.81763C96.0691 11.2414 95.6148 13.44 96.2377 15.1867C96.8727 16.9638 97.5413 17.5584 98.7121 18.514C100.009 19.1073 101.287 19.6293 102.206 20.9261C102.851 19.6786 104.16 19.2212 105.698 18.5145Z" fill="#434448"/>
<path d="M98.0321 10.2327C98.3016 10.1789 98.6263 10.1605 98.8429 9.92602C98.9137 10.0883 98.9675 9.90853 99.0595 9.89104C99.4366 9.83588 99.7612 9.54844 100.158 9.69194L100.138 9.71032C100.085 9.96234 99.7074 9.90853 99.4904 9.9435C99.4182 10.1605 99.5994 10.2144 99.7612 10.2144C99.9953 10.035 100.392 10.1964 100.589 9.99866C100.428 9.85472 100.698 9.85471 100.735 9.71032C100.95 9.83543 101.294 9.54799 101.401 9.87175L101.347 9.90853C101.275 9.90853 101.201 9.87176 101.13 9.83543C101.094 9.85472 101.058 9.89059 101.076 9.9435C101.004 10.1605 101.257 10.1789 101.381 10.2144C101.652 10.1067 101.689 9.81839 101.725 9.56682C101.598 9.49463 101.472 9.60225 101.381 9.47669C101.472 9.44081 101.671 9.38656 101.598 9.22378C101.275 8.88252 100.642 9.04395 100.211 9.06234C100.121 9.07983 99.9949 9.07983 99.9949 8.95382C100.067 8.84575 100.23 8.9166 100.356 8.90001C100.535 8.91705 100.77 8.88252 100.698 8.68297L100.589 8.64844C100.391 8.86279 100.05 8.7018 99.833 8.86279C99.8133 8.95382 99.7962 9.07983 99.8868 9.13364C100.356 9.24126 100.913 8.97176 101.401 9.1888C101.435 9.22333 101.418 9.27714 101.381 9.29642C100.698 9.24127 99.8868 9.44036 99.2209 9.22332L99.2747 9.07983C99.059 8.97176 98.7873 8.7731 98.5007 8.9166C98.4823 9.04351 98.6438 9.25965 98.4285 9.33274C98.1577 9.24126 98.4285 9.07983 98.3012 8.93633C98.2285 8.95382 98.0671 8.90001 97.9778 8.9722C97.7792 9.35068 98.3012 9.47714 98.4285 9.76458L98.3747 9.8184C98.3012 9.87221 98.1935 9.92647 98.1747 9.80001C98.0316 9.74754 97.9778 9.90898 97.8698 9.92647C97.7617 10.0709 97.9783 10.1789 98.0321 10.2327Z" fill="#434448"/>
<path d="M99.5801 15.8354L100.95 16.6995L100.897 17.0426L99.2752 16.0336L99.1491 15.782C99.2388 15.6018 99.4554 15.7453 99.5801 15.8354ZM99.672 15.187C100.122 15.4749 100.59 15.7278 101.005 16.0506L100.969 16.3574C100.464 16.1228 99.9769 15.7991 99.546 15.4574L99.672 15.187ZM100.014 14.7363L101.058 15.3484L101.023 15.6556C100.626 15.4923 100.212 15.187 99.8339 14.9529L100.014 14.7363ZM101.112 14.5385L101.077 15.0067C100.79 14.9166 100.536 14.6995 100.319 14.5385H101.112ZM100.843 17.7636C100.338 17.4928 99.6352 17.1323 99.4725 16.5013C99.9599 16.7713 100.428 17.078 100.877 17.3838C100.823 17.4932 100.877 17.6547 100.843 17.7636ZM100.481 18.1053C100.843 18.3031 101.112 18.6811 101.509 18.7717C101.707 17.2762 101.652 13.9439 101.652 13.9439H99.546C99.0769 13.9798 99.3648 14.5923 99.0415 14.8089C98.968 14.8627 98.7877 14.917 98.7339 14.7726C98.7169 14.6098 98.8245 14.5027 98.9339 14.4121C98.9877 14.2686 99.0599 14.0515 98.9339 13.9264C98.7882 13.7995 98.5725 13.7829 98.3926 13.8175C98.2662 13.8906 98.1756 14.0166 98.1402 14.1421C98.0675 14.3578 98.1402 14.6098 98.32 14.7367C98.32 14.8982 98.194 15.0242 98.0864 15.1336C97.9971 15.2583 98.068 15.439 98.1756 15.5296C98.3752 16.6811 99.3465 17.8524 100.481 18.1053Z" fill="#434448"/>
<path d="M105.814 9.5664C105.778 9.4211 105.633 9.38658 105.509 9.40406C105.166 9.71034 105.128 10.2686 105.292 10.6834C105.292 10.9543 105.941 11.2238 105.544 11.4036C105.309 11.2422 105.021 11.0969 104.859 10.8453C104.752 10.5745 104.859 10.2691 104.967 10.035C105.058 9.81842 104.932 9.62066 105.094 9.44039C104.985 9.40407 104.932 9.31348 104.841 9.25967C104.607 9.24129 104.3 9.25967 104.157 9.45788C104.12 9.63815 104.3 9.60183 104.409 9.62021C104.427 9.76371 104.157 9.6377 104.212 9.81797L104.409 9.90855C104.3 10.0162 104.157 10.1247 103.995 10.1422C103.778 10.0525 103.544 9.94308 103.472 9.69151L103.581 9.60137C103.598 9.38568 103.346 9.45743 103.238 9.38568C103.22 9.51124 103.022 9.52918 103.039 9.69106C103.31 9.92514 103.49 10.322 103.795 10.5202C103.742 10.5731 103.688 10.5929 103.615 10.6467C103.526 10.7005 103.345 10.7005 103.345 10.5377C103.111 10.4489 103.219 10.7364 103.039 10.7543C103.094 10.8987 103.002 10.9538 103.056 11.096L103.22 11.1148C103.472 10.8444 103.795 10.9534 104.102 10.7713L104.299 11.1148L104.03 11.1875C103.814 11.3489 104.228 11.4929 104.03 11.6556C103.904 11.7803 103.76 11.6198 103.724 11.5121C103.507 11.4395 103.615 11.7265 103.436 11.7265C103.31 11.8897 103.581 11.8713 103.507 12.0511C103.56 12.105 103.598 12.1242 103.67 12.1413C103.794 11.8897 104.102 11.961 104.319 11.8534C104.445 11.8359 104.624 11.6368 104.481 11.5296C104.588 11.5467 104.677 11.457 104.751 11.5467C104.643 11.9435 105.202 11.8355 105.182 12.1413C105.128 12.1242 105.111 12.0341 105.02 12.0704C104.894 12.2319 104.858 12.3929 105.02 12.539C105.219 12.448 105.489 12.2682 105.543 12.0341C105.562 11.8175 105.362 11.7807 105.237 11.6736C105.237 11.583 105.273 11.4929 105.291 11.4027C105.399 11.4754 105.489 11.5825 105.632 11.5659C105.813 11.5467 105.867 11.3489 105.813 11.2054C105.436 10.8449 105.218 10.3592 105.382 9.81752C105.416 9.72739 105.454 9.52963 105.615 9.58344C105.813 9.7812 105.508 9.94308 105.525 10.1417C105.525 10.2857 105.669 10.3395 105.76 10.4296C105.831 10.4489 105.974 10.5027 105.994 10.3758C105.742 10.1964 105.778 9.85474 105.814 9.5664Z" fill="#434448"/>
<path d="M101.13 11.2767C101.058 11.2767 101.077 11.3687 101.077 11.4211C101.112 11.5835 101.294 11.5669 101.401 11.6202C101.652 11.4763 101.707 11.2234 101.76 10.9889C101.652 10.935 101.472 11.0261 101.401 10.8992C101.49 10.8812 101.616 10.7911 101.616 10.6835C101.257 10.179 100.554 10.5745 100.014 10.4306C100.158 10.1606 100.59 10.4135 100.789 10.2144C100.843 10.1606 100.789 10.0709 100.735 10.053C100.464 10.1965 100.122 10.1427 99.8693 10.2691C99.7801 10.3767 99.8142 10.5386 99.942 10.5745C100.446 10.6835 101.041 10.3602 101.436 10.6835L101.382 10.7548C100.698 10.5741 99.9769 10.8637 99.3294 10.7014C99.1312 10.6651 99.3648 10.5741 99.3294 10.4669H99.2218C99.0599 10.2503 98.7527 10.3593 98.5725 10.3041C98.4294 10.4301 98.6801 10.5032 98.5725 10.6471C98.5554 10.7368 98.4465 10.7906 98.3752 10.701C98.2492 10.6108 98.3922 10.5207 98.3752 10.4131C98.3016 10.2687 98.194 10.4301 98.0859 10.34C97.9967 10.3758 97.9783 10.4839 97.9586 10.5566C97.9415 10.6646 98.0675 10.701 98.1397 10.7364C98.1935 10.9341 98.4631 11.0418 98.4092 11.2225C98.3554 11.2588 98.229 11.3848 98.1752 11.2225C98.0321 11.1687 97.9783 11.3485 97.8702 11.3848C97.8505 11.5292 97.9411 11.5655 98.0321 11.6552C98.32 11.5655 98.6442 11.5826 98.8967 11.4023C98.9873 11.475 98.9873 11.3485 99.0595 11.3122C99.4366 11.2404 99.7796 11.0247 100.194 11.0776C100.138 11.1144 100.212 11.2409 100.104 11.2409C99.9415 11.2588 99.8142 11.4198 99.6536 11.331C99.546 11.3126 99.4904 11.4202 99.5092 11.5117C99.4909 11.6732 99.672 11.6001 99.7617 11.6364C99.9604 11.4386 100.357 11.4924 100.626 11.5117C100.428 11.7095 100.068 11.5467 99.8339 11.7261C99.7971 11.8171 99.8142 11.9261 99.9048 11.9799C100.392 12.1045 100.933 11.8355 101.419 12.0507C101.456 12.07 101.436 12.1409 101.402 12.1588C100.663 11.9974 99.9415 12.2848 99.2218 12.07C99.2572 12.0337 99.311 11.9611 99.2572 11.8893H99.168C99.0222 11.6552 98.7173 11.7992 98.5178 11.7633C98.4837 11.9261 98.6267 12.07 98.4837 12.1781C98.25 12.1409 98.3756 11.9436 98.3025 11.8176C98.2128 11.8359 98.1052 11.7458 97.9976 11.8359C97.9792 11.9265 97.9792 12.0705 97.9976 12.1413C98.2128 12.2144 98.2666 12.4839 98.4837 12.592L98.3931 12.7001C98.3204 12.7897 98.1944 12.7176 98.1406 12.6463C98.0326 12.7176 97.8173 12.7539 97.8882 12.9346C97.9787 13.1337 98.1756 13.0247 98.3204 13.0247C98.5729 13.0418 98.7527 12.7902 98.9514 12.8633C99.3115 12.6292 99.7263 12.5395 100.139 12.4844C100.285 12.4844 100.159 12.6104 100.159 12.683C99.9424 12.718 99.7438 12.7539 99.5469 12.7539C99.5469 12.827 99.4379 12.9171 99.5469 12.9705C99.798 13.0969 100.105 12.8803 100.41 12.9512C100.807 12.9884 100.429 12.6288 100.79 12.5391C101.006 12.6099 101.239 12.4839 101.419 12.6463C101.419 12.8978 101.239 12.6463 101.131 12.7001C101.077 12.7176 101.095 12.7727 101.095 12.827C101.059 13.0247 101.295 12.9705 101.403 13.0418C101.636 12.8978 101.69 12.6288 101.744 12.3929C101.618 12.4122 101.492 12.4301 101.403 12.322C101.492 12.2853 101.69 12.2144 101.618 12.0512C101.223 11.6906 100.59 11.9265 100.106 11.8897L100.015 11.8176L100.086 11.7637C100.286 11.6368 100.699 11.8534 100.772 11.5471C100.772 11.4395 100.628 11.4933 100.591 11.4933C100.591 11.4207 100.611 11.3494 100.574 11.3135C100.718 10.9543 101.114 11.188 101.383 11.188C101.42 11.2418 101.474 11.2956 101.403 11.3494C101.275 11.4037 101.238 11.2597 101.13 11.2767Z" fill="#434448"/>
<path d="M124.838 11.1331C124.838 11.2062 124.929 11.2237 124.981 11.2421C125.415 10.6833 125.487 9.94384 125.505 9.18914C125.432 8.64833 125.342 8.05281 124.893 7.72949C124.82 7.72949 124.784 7.80035 124.784 7.87299C125.451 8.80887 125.198 10.1609 124.838 11.1331Z" fill="#434448"/>
<path d="M122.281 7.13412L122.533 7.31439C122.459 7.42246 122.316 7.42246 122.19 7.44129C122.19 7.3682 122.281 7.26058 122.281 7.13412ZM121.667 7.31439C121.703 7.22426 121.721 7.11663 121.83 7.06147L121.865 7.35027L121.667 7.31439ZM121.83 6.77358C121.524 6.77358 121.469 7.0978 121.289 7.24175C121.379 7.4413 121.612 7.53143 121.83 7.56596C122.225 7.67493 122.676 7.60229 122.928 7.31439C122.567 7.13412 122.296 6.70183 121.83 6.77358Z" fill="#434448"/>
<path d="M11.1187 39.6005V38.975C9.62673 38.975 8.69534 38.6297 8.69534 37.0593V26.4673C11.6433 26.4673 12.3429 26.9969 12.6173 29.3211H13.3106V25.0889H0.102966V29.3211H0.793998C1.06844 26.9969 1.76844 26.4673 4.71597 26.4673V37.0593C4.71597 38.6297 3.78503 38.975 2.2931 38.975V39.6005H11.1187Z" fill="#434448"/>
<path d="M23.8984 32.6368V37.057C23.8984 38.4638 23.1384 38.9333 21.915 38.9732V39.601H29.6558V38.9732C28.25 38.9732 27.6993 38.6274 27.6993 37.057V27.6319C27.6993 26.0615 28.25 25.7158 29.6558 25.7158V25.0889H21.915V25.7158C23.1384 25.7566 23.8984 26.2238 23.8984 27.6319V31.4673H18.9132V27.6319C18.9132 26.2243 19.6733 25.7566 20.8967 25.7158V25.0889H13.7558V25.7158C14.7177 25.9167 15.1119 26.0615 15.1119 27.6319V37.0566C15.1119 38.627 14.5617 38.9727 13.1554 38.9727V39.6005H20.8967V38.9727C19.6733 38.9333 18.9132 38.4633 18.9132 37.0566V32.6364H23.8984" fill="#434448"/>
<path d="M42.5364 39.6001V35.2925H42.0279C41.2118 38.3911 40.2342 38.579 38.8884 38.579H37.0952C36.2387 38.579 36.0745 38.2925 36.0745 37.5189V32.6135C38.2436 32.6494 39.7544 32.3732 39.8925 34.4359H40.4405V29.8095H39.8925C39.7557 31.6185 38.1553 31.4427 36.0745 31.4427V26.1081H38.3579C40.6822 26.1081 41.6808 27.0055 41.9055 29.2068H42.3535V25.0889H30.3701V25.7158C31.7772 25.7158 32.3275 26.0615 32.3275 27.6319V37.0566C32.3275 38.627 31.7777 38.9727 30.3701 38.9727V39.6005H42.5364" fill="#434448"/>
<path d="M50.0931 39.6806L50.5043 39.6896C50.6254 39.3241 50.8671 38.9878 51.3061 38.9878C52.1191 38.9878 52.8065 39.9645 55.9312 39.9645C57.9585 39.9645 60.4985 38.4573 60.4985 35.0537C60.4985 30.0739 52.5307 30.9322 52.5307 27.5739C52.5307 26.3317 53.6778 25.7393 54.9563 25.7393C56.8576 25.7393 58.1975 27.1887 58.789 29.0425H59.2294V25.0887H58.6092C58.5079 25.4012 58.4384 25.6089 58.1294 25.6089C57.4079 25.6089 56.8249 24.7156 54.7357 24.7156C52.1877 24.7156 49.5428 25.8142 49.5428 29.0097C49.5428 34.3483 57.6146 33.6115 57.6146 36.955C57.6146 38.0416 56.3639 38.947 54.8671 38.947C52.8541 38.947 50.8478 37.3205 50.5047 35.2586H49.9294L50.0931 39.6806Z" fill="#434448"/>
<path d="M156.522 39.6001V39.0131C155.318 39.0131 154.841 38.2548 154.841 36.6862V27.9194C154.841 26.3507 155.176 25.7288 156.31 25.7288V25.0889H149.531V25.7288C150.68 25.7288 151.018 26.3503 151.018 27.9194V36.6862C151.018 38.2548 150.54 39.0131 149.32 39.0131V39.6001H156.522Z" fill="#434448"/>
<path d="M166.35 39.6001L170.851 27.9427V36.6862C170.851 38.4207 170.54 38.8306 168.892 39.0131V39.6001H176.53V39.0131C174.696 38.8306 174.571 38.2548 174.571 36.6862V28.0561C174.571 26.1099 174.903 26.0077 176.53 25.7288V25.0889H170.575L167.003 34.5373L163.492 25.0889H157.556V25.7288C158.942 25.7288 159.492 26.4866 159.492 28.0561V36.9095C159.492 38.4781 159.208 38.762 157.556 39.0131V39.6001H162.745V39.0131C160.855 38.7274 160.786 38.4781 160.786 36.9095V28.5628L165.218 39.6001H166.35Z" fill="#434448"/>
<path d="M189.704 39.6001V35.2925H189.196C188.38 38.3911 187.403 38.579 186.057 38.579H184.264C183.407 38.579 183.244 38.2925 183.244 37.5189V32.6135C185.412 32.6494 186.921 32.3732 187.061 34.4359H187.609V29.8095H187.061C186.925 31.6185 185.322 31.4427 183.244 31.4427V26.1081H185.526C187.851 26.1081 188.849 27.0055 189.073 29.2068H189.522V25.0889H177.538V25.7158C178.944 25.7158 179.496 26.0615 179.496 27.6319V37.1117C179.496 38.6808 178.944 39.0279 177.538 39.0279V39.6005H189.704" fill="#434448"/>
<path d="M191.492 39.6804H191.903C192.023 39.3136 192.266 38.988 192.703 38.988C193.125 38.988 195.036 39.9647 197.33 39.9647C199.356 39.9647 201.897 38.4575 201.897 35.0539C201.897 30.0741 193.929 30.9324 193.929 27.5741C193.929 26.332 195.076 25.7396 196.353 25.7396C198.256 25.7396 199.596 27.1889 200.186 29.0427H200.628V25.0889H200.009C199.905 25.4015 199.836 25.6091 199.528 25.6091C198.806 25.6091 198.222 24.7158 196.134 24.7158C193.586 24.7158 190.942 25.8145 190.942 29.01C190.942 34.3485 199.013 33.6118 199.013 36.9553C199.013 38.0418 197.763 38.9472 196.264 38.9472C194.251 38.9472 192.246 37.3207 191.904 35.2589H191.327L191.492 39.6804Z" fill="#434448"/>
<path d="M146.678 39.6005V38.975C145.186 38.975 144.254 38.6297 144.254 37.0593V26.4673C147.204 26.4673 147.903 26.9969 148.176 29.3211H148.869V25.0889H135.662V29.3211H136.353C136.627 26.9969 137.327 26.4673 140.275 26.4673V37.0593C140.275 38.6297 139.346 38.975 137.852 38.975V39.6005H146.678Z" fill="#434448"/>
<path d="M76.0912 25.7287C76.9069 25.7287 77.1818 25.9323 77.8939 26.7874V37.043C77.8939 38.6117 77.1737 38.9587 75.68 38.9587V39.6H81.5338V38.9587C79.9217 38.9587 79.2109 38.6117 79.2109 37.043V28.9408H79.2517L87.4602 39.5996H89.1777V27.9646C89.1777 26.3942 89.693 25.8345 91.1342 25.7283V25.0883H86.1199V25.7283C87.5625 26.0067 87.8715 26.3946 87.8715 27.9646V34.057H87.832L81.1401 25.0879H70.6741V25.7278C71.9791 25.7686 72.6042 26.3807 72.6042 27.6435V34.7444C72.6042 37.4341 71.7289 38.4529 69.532 38.4529C68.1459 38.4529 66.4755 37.8022 66.4755 35.6404V27.6439C66.4755 26.074 67.0262 25.7283 68.432 25.7283V25.0883H60.7939V25.7283C62.2011 25.7283 62.7504 26.074 62.7504 27.6439V35.3691C62.7504 38.8341 65.1549 39.9996 68.4571 39.9996C72.0732 39.9996 73.9863 38.7318 73.9863 35.3269V27.6439C73.9863 26.0744 74.6499 25.7287 76.0912 25.7287Z" fill="#434448"/>
<path d="M97.5908 26.1241C101.404 25.6779 102.948 28.6761 102.948 31.9766C102.948 36.7699 101.68 38.4887 98.9298 38.4887C98.0285 38.4887 97.5908 38.1645 97.5908 36.9829V26.1241ZM93.8133 37.0439C93.8133 38.6125 93.2639 38.9595 91.8581 38.9595V39.6008H99.0984C103.663 39.6008 106.762 37.6986 106.762 32.3636C106.762 26.9842 103.663 25.0896 99.0984 25.0896H91.8581V25.7295C93.2639 25.7295 93.8133 26.0752 93.8133 27.6452V37.0439Z" fill="#434448"/>
<path d="M113.699 33.8694H110.128L111.913 28.5964L113.699 33.8694ZM120.913 38.9726C120.007 38.9784 119.391 38.5192 119.023 37.6233L114.386 24.6121L111.741 25.2995L107.633 37.0363C107.04 38.5659 106.246 38.8941 105.009 38.973V39.6008H110.78V38.973C109.537 38.973 108.716 38.5865 108.716 38.056C108.716 37.6686 108.819 37.3623 108.981 36.9156L109.724 35.1237H114.043L114.987 37.2417C115.09 37.5255 115.211 37.8937 115.211 38.2192C115.211 38.708 114.845 38.9735 114.375 38.9735H113.252V39.6013H128.81V38.96C127.406 38.96 126.578 38.613 126.578 37.0443V32.7529L130.012 27.2784C130.871 25.9721 131.42 25.8363 132.624 25.7296V25.0896H127.368V25.7296C128.185 25.7296 128.758 25.9529 128.758 26.5246C128.758 26.9923 128.535 27.4206 128.329 27.8085L125.995 31.3103L123.935 27.7887C123.669 27.2789 123.363 26.7286 123.363 26.3618C123.363 25.995 123.688 25.73 124.504 25.73V25.0901H116.791V25.73C117.585 25.873 118.507 25.7681 119.193 26.8295L122.883 32.7529V37.0443C122.883 38.6125 121.987 38.9672 120.913 38.9726Z" fill="#434448"/>
</svg>
