<svg xmlns="http://www.w3.org/2000/svg" width="40" height="40" viewBox="0 0 40 40" fill="none">
    <mask id="mask0_1_7769" style="mask-type:alpha" maskUnits="userSpaceOnUse" x="0" y="-1" width="40" height="41">
        <rect y="-0.000488281" width="40" height="40" fill="#D9D9D9" />
    </mask>
    <g mask="url(#mask0_1_7769)">
        <path d="M13.7101 27.5978L19.834 21.4739L25.9579 27.5978L27.4323 26.1235L21.3084 19.9996L27.4323 13.8756L25.9579 12.4013L19.834 18.5252L13.7101 12.4013L12.2358 13.8756L18.3597 19.9996L12.2358 26.1235L13.7101 27.5978ZM19.8368 35.8328C17.6583 35.8328 15.6074 35.4173 13.6841 34.5862C11.7607 33.7551 10.0817 32.6225 8.64711 31.1885C7.21247 29.7545 6.07941 28.0763 5.24794 26.1538C4.41647 24.2313 4.00073 22.1808 4.00073 20.0023C4.00073 17.8125 4.41629 15.7541 5.2474 13.8272C6.07851 11.9003 7.21107 10.2241 8.64507 8.79876C10.0791 7.37337 11.7573 6.24494 13.6798 5.41347C15.6023 4.582 17.6528 4.16626 19.8312 4.16626C22.0211 4.16626 24.0795 4.58182 26.0064 5.41293C27.9333 6.24404 29.6095 7.37195 31.0348 8.79668C32.4602 10.2214 33.5886 11.8968 34.4201 13.8229C35.2516 15.7489 35.6673 17.8069 35.6673 19.9968C35.6673 22.1753 35.2518 24.2262 34.4207 26.1495C33.5895 28.0728 32.4616 29.7518 31.0369 31.1865C29.6122 32.6211 27.9367 33.7542 26.0107 34.5856C24.0847 35.4171 22.0267 35.8328 19.8368 35.8328ZM19.834 33.7389C23.6617 33.7389 26.9085 32.4031 29.5744 29.7314C32.2404 27.0597 33.5734 23.8158 33.5734 19.9996C33.5734 16.1719 32.2404 12.9251 29.5744 10.2592C26.9085 7.59321 23.6617 6.26022 19.834 6.26022C16.0178 6.26022 12.7738 7.59321 10.1022 10.2592C7.43052 12.9251 6.09469 16.1719 6.09469 19.9996C6.09469 23.8158 7.43052 27.0597 10.1022 29.7314C12.7738 32.4031 16.0178 33.7389 19.834 33.7389Z" fill="#F04438" />
    </g>
</svg>