<svg xmlns="http://www.w3.org/2000/svg" width="40" height="40" viewBox="0 0 40 40" fill="none">
    <mask id="mask0_1_7808" style="mask-type:alpha" maskUnits="userSpaceOnUse" x="0" y="-1" width="40" height="41">
        <rect y="-0.000488281" width="40" height="40" fill="#D9D9D9" />
    </mask>
    <g mask="url(#mask0_1_7808)">
        <path d="M17.6354 27.09L28.8405 15.8849L27.0841 14.1285L17.6354 23.5772L12.8854 18.8272L11.129 20.5836L17.6354 27.09ZM20.0036 35.8336C17.8137 35.8336 15.7553 35.418 13.8284 34.5869C11.9015 33.7558 10.2253 32.6279 8.79998 31.2032C7.37459 29.7784 6.24616 28.103 5.41469 26.177C4.58322 24.2509 4.16748 22.193 4.16748 20.0031C4.16748 17.8132 4.58304 15.7548 5.41415 13.8279C6.24526 11.901 7.37318 10.2249 8.7979 8.79949C10.2226 7.37411 11.8981 6.24567 13.8241 5.4142C15.7501 4.58273 17.8081 4.16699 19.998 4.16699C22.1879 4.16699 24.2463 4.58255 26.1732 5.41366C28.1001 6.24477 29.7762 7.37269 31.2016 8.79741C32.627 10.2222 33.7554 11.8976 34.5869 13.8236C35.4183 15.7496 35.8341 17.8076 35.8341 19.9975C35.8341 22.1874 35.4185 24.2458 34.5874 26.1727C33.7563 28.0996 32.6284 29.7757 31.2037 31.2011C29.7789 32.6265 28.1035 33.7549 26.1774 34.5864C24.2514 35.4178 22.1935 35.8336 20.0036 35.8336Z" fill="#12B76A" />
    </g>
</svg>